<svg width="87" height="70" viewBox="0 0 87 70" fill="none" xmlns="http://www.w3.org/2000/svg">
<path d="M37.4131 31.4966C37.565 30.6341 38.0087 27.8168 37.5135 27.0606C36.6741 25.6025 34.8648 25.4026 33.6742 24.3129C32.3128 23.5378 31.1301 21.7777 29.703 21.0848C28.6864 20.1872 27.888 19.41 27.5963 18.01C27.4075 17.1391 26.7563 16.5786 26.7852 17.6337C25.8984 16.8754 24.4508 15.5157 25.2167 17.3108C26.0976 18.7825 27.356 20.228 28.0604 21.8473C28.6538 23.4541 30.2634 24.2208 31.3683 25.378C33.1113 28.1131 34.6929 29.802 37.4131 31.4966Z" fill="#D9D9D9"/>
<path d="M47.8687 28.5364L49.852 29.3948C45.8461 34.1809 52.8376 25.1592 54.476 24.2595C55.4842 23.2007 56.7468 22.4523 57.3119 21.0068C58.0262 19.3305 58.9934 18.1775 59.6567 16.8874C61.3304 13.7085 59.1926 15.2498 58.6691 16.4316C58.0099 14.9881 57.9174 17.8912 57.2851 18.2775C56.0819 19.5696 53.9856 20.7781 52.9979 22.2786C51.8152 23.452 50.2609 24.1632 48.838 24.9975C48.6777 25.0958 47.9859 25.5946 46.4621 25.2529C45.2736 24.9854 47.6942 27.3793 47.8687 28.5364Z" fill="#D9D9D9"/>
<path d="M43.0459 39.167L37.1834 43.8203C37.0441 44.0369 36.898 44.2578 36.7439 44.4865C35.4199 46.2141 33.7546 48.2668 33.1859 50.3728C32.7691 51.7382 32.7217 53.2675 31.6847 54.3697C30.6276 55.4489 29.8617 56.7453 29.5742 58.2379C29.0854 59.6117 28.6585 62.0626 27.8575 62.6085C26.3095 63.0979 24.3998 63.7557 25.9767 64.0096C26.3158 64.063 27.1347 63.9358 27.8328 63.9462C28.1366 63.9462 28.3957 64.0813 28.6212 64.1116C28.6543 64.087 29.1737 64.3283 29.3524 64.0321C29.57 63.6741 30.1493 61.6565 30.8205 60.4769C31.6663 59.1889 32.7712 58.0197 33.1491 56.4841C33.7772 55.4965 34.5925 54.6361 35.2185 53.6422L35.2432 53.603L35.6107 52.9226C35.6722 52.7939 35.73 52.6693 35.7831 52.5364C35.8388 52.3542 36.0401 52.0308 36.2614 51.7084L42.0356 46.6726L43.0459 39.167Z" fill="#D9D9D9"/>
<path d="M42.9423 16.9649C42.7867 16.9549 42.6343 16.9633 42.4787 16.9795C41.5094 17.0716 40.5938 17.6358 40.3126 18.66C39.5935 20.5551 40.8398 22.1498 41.1294 23.9408C40.3346 25.3612 39.6718 26.5471 37.021 26.3388C36.6515 26.3101 37.5056 27.1485 37.3206 27.508C37.3022 27.541 38.22 28.6532 37.8342 28.2235L39.2854 26.7701L38.5259 35.2706C38.918 40.8418 39.4253 41.7268 37.1624 44.1086L47.4865 45.4395C47.6447 43.2378 47.5359 40.9192 47.2342 38.9545C47.1296 37.4849 46.9961 36.2435 47.1643 35.0623L46.4047 26.6146L49.2032 26.9784C48.46 25.95 47.0266 25.5088 45.8134 25.0179C45.3067 24.6191 44.2922 24.505 44.5755 23.6603C44.8178 22.0493 46.0084 20.6227 45.2368 18.8971C45.0801 17.6808 44.0357 17.0287 42.9423 16.9649Z" fill="#D9D9D9"/>
<path d="M42.5203 39.0671L48.3838 43.7203C48.5236 43.9391 48.6692 44.1578 48.8232 44.3866C50.1457 46.1142 51.8131 48.1668 52.3818 50.2723C52.7966 51.6372 52.8439 53.1691 53.8809 54.2692C54.9385 55.3484 55.7044 56.6469 55.9919 58.1369C56.4829 59.5128 56.9076 61.9627 57.7108 62.5086C59.2588 62.9995 61.1684 63.6574 59.5894 63.9091C59.2504 63.9641 58.4335 63.8353 57.7334 63.8479C57.4317 63.8479 57.173 63.9824 56.9449 64.0112C56.9139 63.9866 56.3946 64.2278 56.2137 63.9337C55.9961 63.5757 55.419 61.5581 54.7456 60.3785C53.8999 59.0884 52.7971 57.9208 52.417 56.3857C51.791 55.3981 50.9736 54.5377 50.3471 53.5439L50.3245 53.5051L49.957 52.8242C49.8934 52.6955 49.8377 52.5709 49.7846 52.4359C49.7294 52.2538 49.5281 51.9329 49.3042 51.6079L42.0651 45.3726L42.5203 39.0671Z" fill="#D9D9D9"/>
<path d="M43.528 66.513C43.5075 66.4654 42.7826 66.4026 42.7721 65.9624C42.7621 65.4291 43.4192 62.8332 43.4313 61.1035C43.3225 59.143 42.8505 57.1621 43.415 55.2261C43.3351 53.2143 42.7233 51.2334 43.025 49.1891C43.2116 48.3732 42.7064 44.6547 42.4867 47.2794C42.3248 49.6329 42.688 52.0331 42.021 54.3265C42.3658 56.3791 42.3947 58.3532 42.0494 60.4085C42.0147 62.1953 42.5445 64.1961 42.2649 65.9645C42.2323 66.1734 41.7992 66.568 41.7456 66.7747C40.0556 69.4057 39.6062 69.5941 39.4275 69.0194C39.2425 68.4244 39.6267 67.4839 40.3389 66.0425C40.8115 65.3046 39.9736 62.996 39.9305 62.168C39.4543 59.815 38.218 57.5132 38.8014 55.054C39.2283 53.296 39.2467 51.3946 38.4461 49.7381C37.6188 46.6451 37.6555 42.534 38.1444 39.3452C38.259 37.7076 38.4051 36.3442 38.1649 35.0379C37.635 36.8205 37.7933 38.8689 36.5528 40.4123C35.1482 42.2666 34.4875 44.0638 33.4814 45.6172C31.0235 49.4812 31.3684 46.1468 32.3455 44.818C30.3255 45.0122 33.4914 43.0658 33.5161 42.1237C34.1832 39.9748 34.1853 36.8979 35.2182 34.8557C35.7664 32.8073 35.5593 30.6505 35.5756 28.5529C35.6534 26.2427 37.859 25.6356 39.6146 24.928C40.1403 24.5151 41.1852 24.3864 40.8935 23.5113C40.6433 21.8433 39.4091 20.3753 40.2075 18.5927C40.5361 16.0309 44.6408 15.9126 45.3036 18.3352C46.049 20.2978 44.7554 21.9475 44.4558 23.7997C45.4802 25.6377 48.3487 25.1573 49.3074 27.0278C50.3855 28.88 49.453 30.998 49.9009 33.0015C49.8925 34.9908 51.0857 37.4192 50.9438 39.431C51.2907 41.1199 51.6523 42.4916 53.0195 43.7058C53.8632 44.4684 54.0687 45.5355 52.9149 44.8306C53.1919 46.2881 53.7733 48.7432 52.2684 46.7539C51.1987 44.851 50.3997 42.5508 49.053 40.7436C47.6506 39.0673 47.8335 36.8042 47.2564 34.8537C46.9815 36.4934 47.0041 37.9263 47.1271 39.6906C47.4824 42.4383 48.0059 45.7689 47.2874 48.4528C46.8727 50.2254 45.9423 51.9368 46.3817 53.8094C46.86 55.6736 46.8727 57.5933 46.2361 59.4209C45.8955 61.2511 44.7906 64.2338 45.3267 65.3438C46.7229 66.8689 48.4128 68.7986 46.5094 68.0753C46.101 67.9198 45.2879 67.2698 44.5073 66.8406C44.1724 66.648 43.7971 66.6235 43.528 66.513Z" fill="#A6A6A6"/>
<path d="M43.3654 0C19.4261 0 0 19.3279 0 43.1613C0 49.6338 1.44551 55.765 4.01011 61.2745C4.12943 61.164 4.25664 61.0599 4.37754 60.9474C1.88074 55.5311 0.474654 49.5129 0.474654 43.1613C0.474654 19.5812 19.6832 0.469982 43.3654 0.469982C67.0481 0.469982 86.2298 19.5812 86.2298 43.1613C86.2298 49.2329 84.9609 55.0004 82.6676 60.2277C82.7927 60.3361 82.912 60.4486 83.035 60.5548C85.392 55.2333 86.7024 49.3517 86.7024 43.1613C86.7024 19.3279 67.3025 0 43.3654 0Z" fill="#D9D9D9"/>
</svg>
