<svg width="100%" height="100%" viewBox="0 0 87 83" fill="none" xmlns="http://www.w3.org/2000/svg">
<path d="M36.8054 32.9045C36.9573 32.042 37.4009 29.2247 36.9058 28.4684C36.0663 27.0103 34.2571 26.8104 33.0665 25.7208C31.7051 24.9457 30.5224 23.1856 29.0953 22.4927C28.0787 21.5951 27.2802 20.8179 26.9885 19.4179C26.7998 18.547 26.1485 17.9865 26.1774 19.0416C25.2907 18.2832 23.8431 16.9235 24.6089 18.7187C25.4899 20.1904 26.7483 21.6359 27.4526 23.2552C28.0461 24.8619 29.6556 25.6287 30.7605 26.7858C32.5035 29.5209 34.0852 31.2098 36.8054 32.9045Z" fill="#FFFFFF"/>
<path d="M47.2609 29.9443L49.2442 30.8026C45.2383 35.5888 52.2298 26.567 53.8682 25.6674C54.8764 24.6086 56.139 23.8602 56.7041 22.4147C57.4184 20.7383 58.3856 19.5854 59.049 18.2953C60.7226 15.1164 58.5848 16.6577 58.0613 17.8394C57.4021 16.396 57.3096 19.2991 56.6773 19.6853C55.4741 20.9775 53.3778 22.186 52.3901 23.6864C51.2074 24.8598 49.6531 25.5711 48.2302 26.4053C48.0699 26.5037 47.3782 27.0025 45.8543 26.6607C44.6658 26.3933 47.0864 28.7872 47.2609 29.9443Z" fill="#FFFFFF"/>
<path d="M42.4381 40.5749L36.5757 45.2281C36.4364 45.4448 36.2902 45.6657 36.1362 45.8944C34.8121 47.622 33.1469 49.6746 32.5782 51.7806C32.1613 53.1461 32.114 54.6754 31.0769 55.7776C30.0199 56.8568 29.254 58.1531 28.9665 59.6458C28.4776 61.0196 28.0508 63.4705 27.2497 64.0164C25.7017 64.5057 23.7921 65.1636 25.369 65.4174C25.708 65.4708 26.527 65.3436 27.225 65.3541C27.5289 65.3541 27.788 65.4891 28.0135 65.5195C28.0466 65.4949 28.5659 65.7362 28.7447 65.4399C28.9623 65.082 29.5415 63.0644 30.2128 61.8847C31.0585 60.5967 32.1634 59.4275 32.5414 57.892C33.1695 56.9044 33.9848 56.044 34.6108 55.0501L34.6355 55.0109L35.0029 54.3305C35.0644 54.2017 35.1223 54.0772 35.1754 53.9442C35.2311 53.7621 35.4324 53.4387 35.6537 53.1163L41.4279 48.0805L42.4381 40.5749Z" fill="#FFFFFF"/>
<path d="M42.3346 18.3727C42.179 18.3628 42.0266 18.3712 41.871 18.3874C40.9017 18.4795 39.986 19.0437 39.7048 20.0679C38.9857 21.963 40.232 23.5577 40.5216 25.3487C39.7269 26.7691 39.064 27.955 36.4132 27.7467C36.0437 27.7179 36.8979 28.5563 36.7128 28.9159C36.6944 28.9489 37.6122 30.061 37.2264 29.6313L38.6777 28.178L37.9181 36.6784C38.3103 42.2497 38.8175 43.1347 36.5546 45.5165L46.8787 46.8474C47.037 44.6456 46.9282 42.3271 46.6264 40.3624C46.5218 38.8928 46.3883 37.6514 46.5565 36.4701L45.797 28.0225L48.5955 28.3863C47.8522 27.3578 46.4188 26.9167 45.2056 26.4257C44.6989 26.0269 43.6844 25.9128 43.9677 25.0681C44.2101 23.4572 45.4006 22.0305 44.629 20.305C44.4724 19.0887 43.4279 18.4366 42.3346 18.3727Z" fill="#FFFFFF"/>
<path d="M41.9125 40.4749L47.776 45.1282C47.9158 45.3469 48.0614 45.5657 48.2154 45.7944C49.538 47.522 51.2053 49.5747 51.774 51.6802C52.1888 53.0451 52.2361 54.577 53.2732 55.6771C54.3307 56.7563 55.0966 58.0548 55.3841 59.5448C55.8751 60.9207 56.2998 63.3706 57.103 63.9164C58.651 64.4074 60.5606 65.0652 58.9816 65.317C58.6426 65.3719 57.8257 65.2432 57.1256 65.2557C56.8239 65.2557 56.5653 65.3902 56.3371 65.419C56.3061 65.3944 55.7868 65.6357 55.606 65.3416C55.3883 64.9836 54.8112 62.966 54.1378 61.7863C53.2921 60.4963 52.1893 59.3286 51.8092 57.7936C51.1832 56.806 50.3658 55.9456 49.7393 54.9517L49.7167 54.913L49.3492 54.2321C49.2856 54.1034 49.2299 53.9788 49.1768 53.8438C49.1216 53.6616 48.9203 53.3408 48.6964 53.0158L41.4573 46.7804L41.9125 40.4749Z" fill="#FFFFFF"/>
<path d="M44.2096 68.0107C44.1891 67.9631 43.4642 67.9003 43.4537 67.4601C43.4437 66.9268 44.1008 64.3309 44.1128 62.6012C44.004 60.6407 43.532 58.6598 44.0966 56.7238C44.0167 54.712 43.4048 52.7311 43.7065 50.6868C43.8931 49.8709 43.388 46.1524 43.1683 48.7771C43.0064 51.1306 43.3696 53.5308 42.7026 55.8242C43.0474 57.8768 43.0763 59.8509 42.7309 61.9062C42.6962 63.693 43.2261 65.6938 42.9465 67.4622C42.9139 67.6711 42.4807 68.0657 42.4271 68.2724C40.7372 70.9034 40.2878 71.0918 40.109 70.5171C39.924 69.922 40.3083 68.9816 41.0205 67.5402C41.4931 66.8023 40.6552 64.4937 40.6121 63.6657C40.1358 61.3127 38.8995 59.0109 39.483 56.5516C39.9098 54.7937 39.9282 52.8923 39.1277 51.2358C38.3003 48.1428 38.3371 44.0317 38.826 40.8429C38.9405 39.2053 39.0867 37.8419 38.8465 36.5356C38.3166 38.3182 38.4748 40.3666 37.2343 41.91C35.8298 43.7643 35.1691 45.5615 34.163 47.1149C31.7051 50.9789 32.0499 47.6445 33.0271 46.3157C31.007 46.5099 34.173 44.5635 34.1977 43.6214C34.8647 41.4725 34.8668 38.3956 35.8997 36.3534C36.448 34.305 36.2409 32.1482 36.2571 30.0506C36.3349 27.7404 38.5405 27.1333 40.2962 26.4257C40.8218 26.0128 41.8668 25.8841 41.5751 25.009C41.3248 23.341 40.0906 21.873 40.8891 20.0904C41.2176 17.5285 45.3223 17.4103 45.9852 19.8329C46.7305 21.7955 45.4369 23.4452 45.1373 25.2974C46.1618 27.1354 49.0302 26.655 49.989 28.5255C51.0671 30.3777 50.1346 32.4957 50.5824 34.4992C50.574 36.4885 51.7672 38.9169 51.6253 40.9287C51.9722 42.6176 52.3339 43.9893 53.7011 45.2035C54.5447 45.9661 54.7502 47.0332 53.5965 46.3282C53.8735 47.7858 54.4548 50.2409 52.9499 48.2516C51.8802 46.3487 51.0813 44.0485 49.7346 42.2413C48.3322 40.565 48.5151 38.3019 47.9379 36.3513C47.663 37.991 47.6856 39.424 47.8086 41.1883C48.164 43.9359 48.6875 47.2666 47.969 49.9505C47.5542 51.7231 46.6238 53.4345 47.0633 55.3071C47.5416 57.1713 47.5542 59.091 46.9177 60.9186C46.5771 62.7488 45.4722 65.7315 46.0083 66.8415C47.4044 68.3666 49.0943 70.2962 47.191 69.573C46.7826 69.4175 45.9694 68.7675 45.1888 68.3383C44.854 68.1457 44.4787 68.1211 44.2096 68.0107Z" fill="#FFFFFF"/>
<path d="M43.3654 0C19.4261 0 0 19.3279 0 43.1613C0 49.6338 1.44551 55.765 4.01011 61.2745C4.12943 61.164 4.25664 61.0599 4.37754 60.9474C1.88074 55.5311 0.474654 49.5129 0.474654 43.1613C0.474654 19.5812 19.6832 0.469982 43.3654 0.469982C67.0481 0.469982 86.2298 19.5812 86.2298 43.1613C86.2298 49.2329 84.9609 55.0004 82.6676 60.2277C82.7927 60.3361 82.912 60.4486 83.035 60.5548C85.392 55.2333 86.7024 49.3517 86.7024 43.1613C86.7024 19.3279 67.3025 0 43.3654 0Z" fill="#FFFFFF"/>
<path d="M4.28134 45.6798L4.79699 45.6327L4.99569 47.7874L6.32871 47.6654L6.14999 45.7295L6.66565 45.6819L6.84647 47.6162L8.83549 47.4336L8.89331 48.0674L4.54048 48.4683L4.28134 45.6798Z" fill="#FFFFFF"/>
<path d="M4.28134 45.6798L4.79699 45.6327L4.99569 47.7874L6.32871 47.6654L6.14999 45.7295L6.66565 45.6819L6.84647 47.6162L8.83549 47.4336L8.89331 48.0674L4.54048 48.4683L4.28134 45.6798Z" stroke="#FFFFFF" stroke-width="0.5814"/>
<path d="M4.24648 44.0721L8.61981 44.0478L8.61624 43.4124L4.24291 43.4368L4.24648 44.0721Z" fill="#FFFFFF"/>
<path d="M4.24648 44.0721L8.61981 44.0478L8.61624 43.4124L4.24291 43.4368L4.24648 44.0721Z" stroke="#FFFFFF" stroke-width="0.5814"/>
<path d="M4.55676 38.3469L5.01249 38.3857L8.13585 41.4688L8.38763 38.6332L8.918 38.6798L8.59368 42.3088L8.15845 42.2695L5.00408 39.1665L4.76806 41.787L4.25241 41.7425L4.55676 38.3469Z" fill="#FFFFFF"/>
<path d="M4.55676 38.3469L5.01249 38.3857L8.13585 41.4688L8.38763 38.6332L8.918 38.6798L8.59368 42.3088L8.15845 42.2695L5.00408 39.1665L4.76806 41.787L4.25241 41.7425L4.55676 38.3469Z" stroke="#FFFFFF" stroke-width="0.5814"/>
<path d="M4.98359 36.0405L9.16191 36.8213C9.45732 36.8789 9.69964 36.9647 9.89097 37.0773C10.0818 37.1919 10.2316 37.329 10.3404 37.4881C10.4492 37.6498 10.5233 37.8299 10.5601 38.0256C10.5969 38.2239 10.6111 38.4302 10.6027 38.6531L10.0487 38.7531C10.0544 38.5736 10.0466 38.4103 10.0276 38.2669C10.0056 38.1193 9.96035 37.9968 9.89044 37.8906C9.81843 37.7838 9.7133 37.6922 9.57401 37.6179C9.43419 37.5446 9.25179 37.487 9.02366 37.4447L4.86374 36.6633L4.98359 36.0405Z" fill="#FFFFFF"/>
<path d="M4.98359 36.0405L9.16191 36.8213C9.45732 36.8789 9.69964 36.9647 9.89097 37.0773C10.0818 37.1919 10.2316 37.329 10.3404 37.4881C10.4492 37.6498 10.5233 37.8299 10.5601 38.0256C10.5969 38.2239 10.6111 38.4302 10.6027 38.6531L10.0487 38.7531C10.0544 38.5736 10.0466 38.4103 10.0276 38.2669C10.0056 38.1193 9.96035 37.9968 9.89044 37.8906C9.81843 37.7838 9.7133 37.6922 9.57401 37.6179C9.43419 37.5446 9.25179 37.487 9.02366 37.4447L4.86374 36.6633L4.98359 36.0405Z" stroke="#FFFFFF" stroke-width="0.5814"/>
<path d="M7.5424 34.4829C7.80942 34.5672 8.05963 34.5949 8.29196 34.5683C8.5264 34.5463 8.73508 34.4824 8.92221 34.3762C9.10881 34.2741 9.26913 34.1354 9.40474 33.9596C9.54036 33.7879 9.64338 33.5896 9.71224 33.3645C9.78005 33.1437 9.80686 32.9202 9.79477 32.6998C9.77795 32.4811 9.72433 32.2764 9.63024 32.0844C9.53353 31.8944 9.39844 31.7243 9.21919 31.5736C9.0431 31.4244 8.81918 31.3077 8.55005 31.224C8.28565 31.1444 8.03703 31.1151 7.80312 31.1376C7.57288 31.1638 7.36368 31.2276 7.17497 31.3323C6.98995 31.4364 6.82805 31.5751 6.69034 31.7489C6.55472 31.9226 6.45222 32.1205 6.38231 32.3413C6.3145 32.5638 6.28822 32.7851 6.29978 33.006C6.31608 33.2269 6.36969 33.4331 6.46431 33.6215C6.56103 33.8136 6.69822 33.9831 6.87746 34.1344C7.05565 34.2867 7.27695 34.4029 7.5424 34.4829ZM8.73928 30.6153C9.06413 30.7152 9.33641 30.8644 9.56664 31.0586C9.79477 31.2564 9.97559 31.4856 10.107 31.7452C10.2363 32.0085 10.312 32.2911 10.3351 32.5957C10.3535 32.9029 10.3141 33.2112 10.22 33.52C10.1212 33.8371 9.9798 34.1129 9.79057 34.35C9.60133 34.5897 9.38004 34.7813 9.1251 34.9231C8.87069 35.0675 8.59316 35.156 8.28933 35.1884C7.98972 35.223 7.67749 35.1905 7.35527 35.09C7.03463 34.9943 6.75972 34.8472 6.52739 34.6488C6.29926 34.4526 6.11896 34.2239 5.98703 33.9617C5.85824 33.7021 5.78203 33.42 5.75942 33.1154C5.73892 32.8129 5.77572 32.5036 5.87244 32.1869C5.97126 31.8766 6.11476 31.6008 6.30346 31.3595C6.49217 31.1198 6.71609 30.9277 6.97103 30.7828C7.22701 30.6414 7.50455 30.553 7.80417 30.5185C8.10694 30.486 8.41864 30.5164 8.73928 30.6153Z" fill="#FFFFFF"/>
<path d="M7.5424 34.4829C7.80942 34.5672 8.05963 34.5949 8.29196 34.5683C8.5264 34.5463 8.73508 34.4824 8.92221 34.3762C9.10881 34.2741 9.26913 34.1354 9.40474 33.9596C9.54036 33.7879 9.64338 33.5896 9.71224 33.3645C9.78005 33.1437 9.80686 32.9202 9.79477 32.6998C9.77795 32.4811 9.72486 32.2764 9.63024 32.0844C9.53353 31.8944 9.39844 31.7243 9.21919 31.5736C9.0431 31.4244 8.81918 31.3077 8.55005 31.224C8.28565 31.1444 8.03703 31.1151 7.80312 31.1376C7.57288 31.1638 7.36368 31.2276 7.17497 31.3323C6.98995 31.4364 6.82805 31.5751 6.69034 31.7489C6.55472 31.9226 6.45222 32.1205 6.38231 32.3413C6.3145 32.5638 6.28822 32.7851 6.29978 33.006C6.31608 33.2269 6.36969 33.4331 6.46431 33.6215C6.56103 33.8136 6.69822 33.9831 6.87746 34.1344C7.05565 34.2867 7.27695 34.4029 7.5424 34.4829ZM8.73928 30.6153C9.06413 30.7152 9.33641 30.8644 9.56664 31.0586C9.79477 31.2564 9.97559 31.4856 10.107 31.7452C10.2363 32.0085 10.312 32.2911 10.3351 32.5957C10.3535 32.9029 10.3141 33.2112 10.22 33.52C10.1212 33.8371 9.9798 34.1129 9.79056 34.35C9.60133 34.5897 9.38004 34.7813 9.1251 34.9231C8.87069 35.0675 8.59316 35.156 8.28933 35.1884C7.98972 35.223 7.67749 35.1905 7.35527 35.09C7.03463 34.9943 6.75972 34.8472 6.52739 34.6489C6.29926 34.4526 6.11896 34.2239 5.98703 33.9617C5.85824 33.7021 5.78203 33.42 5.75942 33.1154C5.73892 32.8129 5.77572 32.5036 5.87244 32.1869C5.97126 31.8766 6.11476 31.6008 6.30346 31.3595C6.49217 31.1198 6.71609 30.9277 6.97103 30.7828C7.22701 30.6414 7.50455 30.553 7.80417 30.5185C8.10694 30.486 8.41864 30.5164 8.73928 30.6153Z" stroke="#FFFFFF" stroke-width="0.5814"/>
<path d="M7.2449 28.5846L8.62997 25.6574L9.09253 25.8741L8.5364 27.0491L12.0309 28.6888L11.7581 29.2655L8.27096 27.6279L7.71483 28.8034L7.2449 28.5846Z" fill="#FFFFFF"/>
<path d="M7.2449 28.5846L8.62997 25.6574L9.09253 25.8741L8.5364 27.0491L12.0309 28.6888L11.7581 29.2655L8.27096 27.6279L7.71483 28.8034L7.2449 28.5846Z" stroke="#FFFFFF" stroke-width="0.5814"/>
<path d="M9.40475 24.2731L10.8949 21.8976L11.347 22.1776L10.1953 24.0135L11.3013 24.7023L12.3347 23.0547L12.7741 23.3285L11.7412 24.976L13.0017 25.759L14.2033 23.8455L14.6549 24.1261L13.1153 26.5791L9.40475 24.2731Z" fill="#FFFFFF"/>
<path d="M9.40475 24.2731L10.8949 21.8976L11.347 22.1771L10.1953 24.0135L11.3013 24.7023L12.3347 23.0547L12.7741 23.3285L11.7412 24.976L13.0017 25.759L14.2033 23.8455L14.6549 24.1261L13.1153 26.5791L9.40475 24.2731Z" stroke="#FFFFFF" stroke-width="0.5814"/>
<path d="M13.8664 21.1821L14.5297 20.373C14.7127 20.1543 14.8125 19.9334 14.8288 19.7125C14.8499 19.4938 14.7631 19.3075 14.5728 19.1546C14.3857 19.0034 14.1907 18.9584 13.9873 19.0175C13.786 19.0793 13.5888 19.2258 13.3944 19.4587L12.7352 20.2642L13.8664 21.1821ZM13.0574 19.0557C13.1972 18.8856 13.3465 18.7469 13.5068 18.6386C13.6687 18.5303 13.8333 18.4586 14.0015 18.4214C14.1697 18.3869 14.3389 18.3869 14.505 18.4235C14.6711 18.4612 14.8294 18.5402 14.9771 18.6611C15.18 18.8265 15.3103 19.0369 15.3692 19.2907C15.4291 19.5487 15.3897 19.8245 15.2567 20.1229L17.599 20.4013L17.1269 20.978L14.9319 20.7001L14.2685 21.5098L15.7224 22.6915L15.3203 23.1835L11.9305 20.4316L13.0574 19.0557Z" fill="#FFFFFF"/>
<path d="M13.8664 21.1821L14.5297 20.373C14.7127 20.1543 14.8125 19.9334 14.8288 19.7125C14.8499 19.4938 14.7631 19.3075 14.5728 19.1546C14.3852 19.0034 14.1907 18.9584 13.9873 19.0175C13.786 19.0793 13.5888 19.2258 13.3944 19.4587L12.7352 20.2642L13.8664 21.1821ZM13.0574 19.0557C13.1972 18.8856 13.3465 18.7469 13.5068 18.6386C13.6687 18.5303 13.8333 18.4586 14.0015 18.4214C14.1697 18.3869 14.3389 18.3869 14.505 18.4235C14.6711 18.4612 14.8294 18.5402 14.9771 18.6611C15.1805 18.8265 15.3103 19.0369 15.3692 19.2907C15.4291 19.5487 15.3897 19.8245 15.2567 20.1229L17.599 20.4013L17.1269 20.978L14.9319 20.7001L14.2685 21.5098L15.7224 22.6915L15.3203 23.1835L11.9305 20.4316L13.0574 19.0557Z" stroke="#FFFFFF" stroke-width="0.5814"/>
<path d="M17.9012 17.5144L19.0771 16.4352L17.2237 15.5581L17.1785 15.5994L17.9012 17.5144ZM17.0507 14.8772L21.392 16.8173L20.9005 17.2674L19.5827 16.6823L18.1025 18.0399L18.5993 19.3791L18.1146 19.8224L16.5314 15.354L17.0507 14.8772Z" fill="#FFFFFF"/>
<path d="M17.9012 17.5144L19.0771 16.4352L17.2237 15.5581L17.1785 15.5994L17.9012 17.5144ZM17.0507 14.8772L21.392 16.8173L20.9005 17.2674L19.5828 16.6823L18.1025 18.0399L18.5988 19.3791L18.1141 19.8224L16.5309 15.354L17.0507 14.8772Z" stroke="#FFFFFF" stroke-width="0.5814"/>
<path d="M21.5271 14.1104L22.1799 13.6624C22.4921 13.4479 22.6956 13.2296 22.7881 13.0067C22.8801 12.7879 22.837 12.5487 22.6583 12.2891C22.4916 12.0521 22.2866 11.9317 22.0401 11.9291C21.7941 11.9291 21.5145 12.0374 21.2007 12.2515L20.5478 12.701L21.5271 14.1104ZM20.9788 11.7783C21.1817 11.6386 21.3873 11.5344 21.597 11.4669C21.8041 11.3994 22.0033 11.3691 22.1988 11.3769C22.3918 11.3853 22.5747 11.4345 22.7429 11.5219C22.9111 11.614 23.0572 11.749 23.1844 11.9264C23.3116 12.1128 23.3899 12.2986 23.4162 12.4849C23.4436 12.6749 23.4267 12.8612 23.3689 13.0407C23.3079 13.2244 23.2091 13.4008 23.0693 13.5682C22.9274 13.7399 22.7534 13.8948 22.5484 14.0361L21.823 14.5349L22.7413 15.858L22.2157 16.2196L19.7283 12.6382L20.9788 11.7783Z" fill="#FFFFFF"/>
<path d="M21.5271 14.1104L22.1799 13.6624C22.4921 13.4479 22.6956 13.2296 22.7881 13.0067C22.8801 12.7879 22.8375 12.5487 22.6583 12.2891C22.4916 12.0521 22.2866 11.9317 22.0401 11.9291C21.7941 11.9291 21.5145 12.0374 21.2007 12.2515L20.5478 12.701L21.5271 14.1104ZM20.9788 11.7783C21.1823 11.6386 21.3878 11.5344 21.597 11.4669C21.8041 11.3994 22.0033 11.3691 22.1988 11.3769C22.3918 11.3853 22.5747 11.4345 22.7429 11.5219C22.9111 11.614 23.0572 11.749 23.1844 11.9264C23.3116 12.1128 23.3899 12.2986 23.4162 12.4849C23.4436 12.6749 23.4267 12.8612 23.3689 13.0407C23.3079 13.2244 23.2091 13.4008 23.0693 13.5682C22.9274 13.7399 22.7534 13.8948 22.5484 14.0361L21.823 14.5349L22.7413 15.858L22.2157 16.2196L19.7283 12.6382L20.9788 11.7783Z" stroke="#FFFFFF" stroke-width="0.5814"/>
<path d="M23.7662 10.0262L25.9097 13.8197L26.4667 13.5077L24.3233 9.71421L23.7662 10.0262Z" fill="#FFFFFF"/>
<path d="M23.7662 10.0262L25.9097 13.8197L26.4667 13.5077L24.3233 9.71421L23.7662 10.0262Z" stroke="#FFFFFF" stroke-width="0.5814"/>
<path d="M27.8863 10.7227L29.3539 10.0894L27.8937 8.65384L27.8385 8.67634L27.8863 10.7227ZM27.9573 7.95462L31.4112 11.211L30.7989 11.4732L29.7481 10.4898L27.9021 11.2853L27.9289 12.7125L27.3233 12.9716L27.3091 8.23462L27.9573 7.95462Z" fill="#FFFFFF"/>
<path d="M27.8863 10.7227L29.3539 10.0899L27.8942 8.65436L27.839 8.67634L27.8863 10.7227ZM27.9573 7.95462L31.4112 11.211L30.7989 11.4732L29.7481 10.4898L27.9021 11.2853L27.9289 12.7125L27.3233 12.9716L27.3091 8.23462L27.9573 7.95462Z" stroke="#FFFFFF" stroke-width="0.5814"/>
<path d="M34.6008 5.82246L36.2761 7.52758L37.2469 5.32735L38.0002 5.18866L38.8054 9.46769L38.1957 9.58178L37.74 7.15756L37.5507 6.07576L37.4913 6.08571L36.5362 8.24929L36.2782 8.29587L34.6145 6.62425L34.5614 6.63419L34.7711 7.71128L35.2263 10.136L34.6308 10.2465L33.8266 5.96586L34.6008 5.82246Z" fill="#FFFFFF"/>
<path d="M34.6008 5.82246L36.2761 7.52758L37.2469 5.32735L38.0002 5.18866L38.8054 9.46769L38.1957 9.58178L37.74 7.15756L37.5507 6.07576L37.4913 6.08571L36.5362 8.24929L36.2782 8.29587L34.615 6.62425L34.5614 6.63419L34.7711 7.71128L35.2263 10.136L34.6308 10.2465L33.8266 5.96586L34.6008 5.82246Z" stroke="#FFFFFF" stroke-width="0.5814"/>
<path d="M41.1713 7.46371L42.7703 7.41295L41.9445 5.54244L41.883 5.54401L41.1713 7.46371ZM42.261 4.91702L44.2673 9.21018L43.6024 9.23059L42.9884 7.93003L40.9779 7.99179L40.4748 9.32846L39.8157 9.3494L41.555 4.93743L42.261 4.91702Z" fill="#FFFFFF"/>
<path d="M41.1713 7.46371L42.7703 7.41295L41.9445 5.54244L41.883 5.54401L41.1713 7.46371ZM42.261 4.91702L44.2673 9.21018L43.6024 9.23059L42.9884 7.93003L40.9779 7.99179L40.4748 9.32846L39.8157 9.3494L41.555 4.93743L42.261 4.91702Z" stroke="#FFFFFF" stroke-width="0.5814"/>
<path d="M45.5011 4.94739L48.7327 5.28025L48.6817 5.78791L47.3818 5.65288L46.9834 9.47816L46.3468 9.41221L46.7453 5.59322L45.4474 5.46028L45.5011 4.94739Z" fill="#FFFFFF"/>
<path d="M45.5011 4.94739L48.7327 5.28025L48.6817 5.78791L47.3818 5.65288L46.9834 9.47816L46.3468 9.41221L46.7453 5.59322L45.4474 5.46028L45.5011 4.94739Z" stroke="#FFFFFF" stroke-width="0.5814"/>
<path d="M50.306 5.5524L53.0487 6.16997L52.9321 6.68758L50.8127 6.2087L50.5236 7.47629L52.4269 7.90545L52.3118 8.40892L50.4106 7.97924L50.0831 9.42268L52.2934 9.92197L52.1751 10.4391L49.3409 9.79898L50.306 5.5524Z" fill="#FFFFFF"/>
<path d="M50.306 5.5524L53.0487 6.16997L52.9321 6.68758L50.8127 6.2087L50.5236 7.47629L52.4269 7.90545L52.3118 8.40892L50.4106 7.97924L50.0831 9.42268L52.2934 9.92197L52.1751 10.4391L49.3409 9.79898L50.306 5.5524Z" stroke="#FFFFFF" stroke-width="0.5814"/>
<path d="M55.412 6.87912L54.5247 9.25886C54.3623 9.69639 54.3407 10.0601 54.459 10.3506C54.5762 10.6411 54.8143 10.8515 55.1754 10.9844C55.5318 11.1152 55.8509 11.109 56.1321 10.9661C56.4112 10.8206 56.6309 10.5322 56.7955 10.0968L57.6828 7.71755L58.2825 7.93789L57.4121 10.2747C57.2938 10.5877 57.1513 10.8415 56.9868 11.0414C56.8186 11.2377 56.6315 11.3874 56.4275 11.4853C56.2194 11.581 55.9954 11.626 55.7552 11.6219C55.5129 11.6156 55.2606 11.5648 54.9957 11.469C54.7287 11.3691 54.5026 11.2419 54.316 11.0901C54.1294 10.9347 53.9896 10.7573 53.8971 10.5505C53.8046 10.3443 53.7594 10.1114 53.7636 9.8534C53.7657 9.59591 53.8251 9.30963 53.9423 8.99509L54.8128 6.65826L55.412 6.87912Z" fill="#FFFFFF"/>
<path d="M55.412 6.87912L54.5247 9.25886C54.3623 9.69639 54.3407 10.0601 54.459 10.3506C54.5762 10.6411 54.8143 10.8515 55.1754 10.9844C55.5318 11.1152 55.8509 11.109 56.1321 10.9661C56.4112 10.8206 56.6309 10.5322 56.7955 10.0968L57.6828 7.71755L58.2825 7.93789L57.4121 10.2747C57.2938 10.5877 57.1513 10.8415 56.9868 11.0414C56.8186 11.2377 56.6315 11.3874 56.4275 11.4853C56.2194 11.581 55.9954 11.626 55.7552 11.6219C55.5129 11.6161 55.2606 11.5653 54.9957 11.469C54.7287 11.3691 54.5026 11.2419 54.316 11.0901C54.1294 10.9347 53.9896 10.7573 53.8971 10.5505C53.8046 10.3443 53.7594 10.1114 53.7636 9.8534C53.7657 9.59591 53.8251 9.30963 53.9423 8.99509L54.8128 6.65826L55.412 6.87912Z" stroke="#FFFFFF" stroke-width="0.5814"/>
<path d="M61.921 10.6536C61.8185 10.4553 61.7013 10.2873 61.5699 10.1528C61.4385 10.0198 61.2703 9.90102 61.07 9.79269C60.917 9.71471 60.7856 9.66551 60.6726 9.64719C60.5596 9.63358 60.4624 9.63515 60.3788 9.65557C60.2947 9.67807 60.2248 9.7168 60.1696 9.77228C60.1102 9.82932 60.065 9.89108 60.0329 9.95179C59.9541 10.0952 59.9373 10.2381 59.9804 10.3815C60.0214 10.5285 60.1407 10.6819 60.342 10.841L60.8329 11.2461C61.1205 11.4873 61.3092 11.7532 61.3996 12.0473C61.4879 12.342 61.4448 12.6529 61.2703 12.98C61.1799 13.1454 61.0626 13.2783 60.9213 13.3804C60.7788 13.4803 60.6132 13.5484 60.4282 13.5808C60.2416 13.6132 60.0403 13.6096 59.8227 13.5682C59.6029 13.5258 59.3748 13.4395 59.1388 13.3155C58.9953 13.238 58.8676 13.1642 58.7588 13.0904C58.6479 13.0166 58.5475 12.9376 58.4549 12.8533C58.3624 12.7691 58.2762 12.6775 58.1942 12.5796C58.1122 12.4796 58.0302 12.3713 57.9519 12.2462L58.416 11.8317C58.5637 12.0892 58.7115 12.2897 58.8649 12.4346C59.0116 12.5796 59.1882 12.7042 59.3937 12.8125C59.7202 12.9847 59.9993 13.0538 60.2316 13.0213C60.4597 12.9847 60.6237 12.8764 60.7205 12.6958C60.8293 12.4896 60.8561 12.3075 60.8056 12.1463C60.7509 11.9845 60.6095 11.8129 60.3793 11.6271L59.8332 11.1937C59.5767 10.9891 59.4205 10.7499 59.3669 10.4741C59.3117 10.202 59.3506 9.94237 59.482 9.69482C59.564 9.54409 59.6671 9.41691 59.7901 9.31904C59.9131 9.22327 60.0529 9.15942 60.2111 9.12487C60.3672 9.094 60.5386 9.094 60.7247 9.12487C60.9097 9.15994 61.1068 9.22902 61.3139 9.33736C61.5662 9.47239 61.7791 9.61579 61.9462 9.76495C62.1145 9.91463 62.2627 10.1041 62.3941 10.3375L61.921 10.6536Z" fill="#FFFFFF"/>
<path d="M61.921 10.6536C61.8185 10.4553 61.7013 10.2873 61.5699 10.1528C61.4385 10.0198 61.2703 9.90103 61.07 9.79269C60.917 9.71471 60.7856 9.66551 60.6726 9.6472C60.5596 9.63359 60.4624 9.63516 60.3788 9.65557C60.2947 9.67807 60.2248 9.7168 60.1696 9.77228C60.1102 9.82933 60.065 9.89108 60.0329 9.9518C59.9541 10.0952 59.9373 10.2381 59.9804 10.3815C60.0214 10.5285 60.1407 10.6819 60.342 10.841L60.8329 11.2461C61.1205 11.4873 61.3092 11.7532 61.3996 12.0468C61.4879 12.3415 61.4448 12.6524 61.2703 12.9795C61.1799 13.1448 61.0626 13.2778 60.9213 13.3798C60.7788 13.4798 60.6132 13.5478 60.4282 13.5803C60.2416 13.6127 60.0403 13.6091 59.8227 13.5677C59.6029 13.5253 59.3748 13.439 59.1388 13.3149C58.9953 13.2375 58.8676 13.1637 58.7588 13.0899C58.6479 13.0161 58.5475 12.9371 58.4549 12.8528C58.3624 12.7685 58.2762 12.677 58.1942 12.5791C58.1122 12.4791 58.0302 12.3708 57.9519 12.2457L58.416 11.8312C58.5637 12.0887 58.7115 12.2891 58.8649 12.4341C59.0116 12.5791 59.1882 12.7036 59.3937 12.812C59.7202 12.9842 59.9993 13.0533 60.2316 13.0208C60.4597 12.9836 60.6237 12.8758 60.7205 12.6953C60.8293 12.4891 60.8561 12.3069 60.8056 12.1457C60.7509 11.9845 60.6095 11.8129 60.3793 11.6266L59.8332 11.1932C59.5767 10.9886 59.4205 10.7494 59.3669 10.4736C59.3117 10.2014 59.3506 9.94185 59.482 9.6943C59.564 9.54357 59.6671 9.41639 59.7901 9.31852C59.9131 9.22275 60.0529 9.1589 60.2111 9.12436C60.3672 9.09348 60.5386 9.09348 60.7247 9.12436C60.9097 9.15942 61.1068 9.22851 61.3139 9.33684C61.5662 9.47187 61.7791 9.61527 61.9462 9.76443C62.1145 9.91411 62.2627 10.1036 62.3941 10.337L61.921 10.6536Z" stroke="#FFFFFF" stroke-width="0.5814"/>
<path d="M66.9998 13.0674L66.7338 13.4379L62.4877 14.5705L64.8184 16.218L64.5124 16.6498L61.5268 14.5396L61.7796 14.1837L66.0625 13.037L63.9069 11.5146L64.2065 11.0933L66.9998 13.0674Z" fill="#FFFFFF"/>
<path d="M66.9998 13.0674L66.7338 13.4379L62.4877 14.5705L64.8184 16.218L64.5124 16.6498L61.5268 14.5396L61.7796 14.1837L66.0625 13.037L63.9069 11.5146L64.2065 11.0933L66.9998 13.0674Z" stroke="#FFFFFF" stroke-width="0.5814"/>
<path d="M67.9333 19.017L68.5452 19.6775C68.7197 19.8659 68.9047 20.0229 69.1018 20.148C69.2947 20.2725 69.4961 20.3505 69.7042 20.3809C69.9066 20.4091 70.1158 20.3866 70.3313 20.317C70.5447 20.2432 70.7602 20.1087 70.98 19.9083C71.1997 19.7036 71.3621 19.4995 71.4625 19.2954C71.5639 19.0902 71.6102 18.8861 71.6081 18.682C71.6039 18.4779 71.5529 18.2775 71.4541 18.0765C71.3516 17.8781 71.2139 17.6824 71.0393 17.4898L70.3739 16.7723L67.9333 19.017ZM71.4215 17.1402C71.6701 17.4097 71.8567 17.6861 71.9818 17.9682C72.1069 18.2518 72.1705 18.5302 72.1726 18.8082C72.1758 19.0861 72.1132 19.3577 71.986 19.6241C71.8588 19.8879 71.6659 20.1391 71.411 20.3762C71.146 20.6174 70.8732 20.7833 70.5915 20.8754C70.3061 20.9628 70.0249 20.988 69.7436 20.9492C69.4603 20.9063 69.1791 20.8037 68.9037 20.6405C68.6246 20.4745 68.3638 20.26 68.1184 19.9962L67.1091 18.9092L70.3203 15.9548L71.4215 17.1402Z" fill="#FFFFFF"/>
<path d="M67.9333 19.017L68.5452 19.6775C68.7197 19.8659 68.9047 20.0229 69.1018 20.148C69.2947 20.2725 69.4961 20.3505 69.7042 20.3809C69.9066 20.4091 70.1158 20.3866 70.3313 20.317C70.5447 20.2432 70.7602 20.1087 70.98 19.9083C71.1997 19.7036 71.3621 19.4995 71.4625 19.2954C71.5639 19.0902 71.6102 18.8861 71.6081 18.682C71.6039 18.4779 71.5529 18.2775 71.4541 18.0765C71.3516 17.8781 71.2139 17.6824 71.0393 17.4898L70.3739 16.7723L67.9333 19.017ZM71.4215 17.1402C71.6701 17.4097 71.8567 17.6861 71.9818 17.9682C72.1069 18.2518 72.1705 18.5302 72.1726 18.8082C72.1758 19.0861 72.1132 19.3577 71.986 19.6241C71.8588 19.8879 71.6659 20.1391 71.411 20.3762C71.146 20.6174 70.8732 20.7833 70.5915 20.8754C70.3061 20.9628 70.0249 20.988 69.7436 20.9492C69.4603 20.9063 69.1791 20.8037 68.9037 20.6405C68.6246 20.4745 68.3638 20.26 68.1184 19.9962L67.1091 18.9092L70.3203 15.9548L71.4215 17.1402Z" stroke="#FFFFFF" stroke-width="0.5814"/>
<path d="M74.0744 20.2312L75.6923 22.523L75.2571 22.8276L74.0066 21.0571L72.939 21.8055L74.0623 23.3939L73.6371 23.6901L72.5159 22.1022L71.2985 22.9522L72.6021 24.8002L72.1669 25.1032L70.4958 22.7355L74.0744 20.2312Z" fill="#FFFFFF"/>
<path d="M74.0744 20.2312L75.6923 22.523L75.2571 22.8276L74.0066 21.0571L72.939 21.8055L74.0623 23.3939L73.6371 23.6901L72.5159 22.1022L71.2985 22.9522L72.6021 24.8002L72.1669 25.1032L70.4958 22.7355L74.0744 20.2312Z" stroke="#FFFFFF" stroke-width="0.5814"/>
<path d="M75.1987 25.5344L75.6886 26.4587C75.8221 26.7099 75.9861 26.8863 76.1832 26.9878C76.3793 27.0883 76.5838 27.0847 76.7972 26.9737C77.0106 26.8591 77.1299 26.6979 77.1546 26.4896C77.1772 26.2808 77.1178 26.0416 76.9759 25.7736L76.4892 24.8562L75.1987 25.5344ZM77.481 25.6218C77.5835 25.8165 77.6535 26.0065 77.6903 26.197C77.727 26.3865 77.7291 26.567 77.6987 26.7345C77.664 26.902 77.5983 27.0553 77.4994 27.194C77.4017 27.3332 77.2655 27.4452 77.0968 27.5358C76.8629 27.6546 76.6185 27.6928 76.3599 27.6478C76.1012 27.6028 75.8589 27.4599 75.635 27.2207L74.4644 29.2587L74.1154 28.6008L75.2303 26.6974L74.7393 25.7731L73.0814 26.6461L72.7808 26.0819L76.649 24.0523L77.481 25.6218Z" fill="#FFFFFF"/>
<path d="M75.1987 25.5344L75.6886 26.4587C75.8221 26.7099 75.9861 26.8863 76.1832 26.9878C76.3793 27.0883 76.5838 27.0841 76.7972 26.9737C77.0106 26.8591 77.1299 26.6979 77.1546 26.4896C77.1772 26.2808 77.1178 26.0416 76.9759 25.7736L76.4892 24.8562L75.1987 25.5344ZM77.481 25.6218C77.5835 25.8165 77.6535 26.0065 77.6903 26.197C77.727 26.3865 77.7291 26.567 77.6987 26.7345C77.664 26.902 77.5983 27.0553 77.4994 27.194C77.4017 27.3332 77.2655 27.4452 77.0968 27.5358C76.8629 27.6546 76.6185 27.6928 76.3599 27.6478C76.1012 27.6028 75.86 27.4599 75.635 27.2207L74.4644 29.2587L74.1154 28.6008L75.2303 26.6974L74.7403 25.7731L73.0814 26.6461L72.7808 26.0819L76.649 24.0523L77.481 25.6218Z" stroke="#FFFFFF" stroke-width="0.5814"/>
<path d="M76.3188 32.5627L75.8169 32.7511L74.8607 30.239L78.9539 28.6992L79.1789 29.2938L75.5919 30.6456L76.3188 32.5627Z" fill="#FFFFFF"/>
<path d="M76.3188 32.5627L75.8169 32.7511L74.8607 30.239L78.9539 28.6992L79.1789 29.2938L75.5919 30.6456L76.3188 32.5627Z" stroke="#FFFFFF" stroke-width="0.5814"/>
<path d="M80.3873 32.749L81.0753 35.4637L80.5586 35.593L80.0267 33.4953L78.762 33.8125L79.2382 35.6971L78.7373 35.8238L78.26 33.9392L76.8177 34.3003L77.3722 36.49L76.8566 36.6193L76.1475 33.8141L80.3873 32.749Z" fill="#FFFFFF"/>
<path d="M80.3873 32.749L81.0753 35.4637L80.5586 35.5925L80.0267 33.4953L78.762 33.8125L79.2382 35.6971L78.7373 35.8238L78.26 33.9392L76.8177 34.3003L77.3722 36.49L76.8566 36.6193L76.1475 33.8141L80.3873 32.749Z" stroke="#FFFFFF" stroke-width="0.5814"/>
<path d="M80.9656 40.7895C81.0928 40.5566 81.1811 40.3357 81.2315 40.1269C81.2757 39.9165 81.2862 39.6915 81.2594 39.4523C81.2268 39.1948 81.1548 38.965 81.0439 38.7656C80.9309 38.5652 80.7895 38.3993 80.6176 38.2705C80.4441 38.1381 80.247 38.046 80.0284 37.9926C79.8034 37.9371 79.5674 37.9251 79.3208 37.9555C79.0375 37.9879 78.7973 38.0622 78.596 38.1763C78.3947 38.2904 78.2307 38.4317 78.1029 38.6034C77.9757 38.7709 77.8895 38.9635 77.8443 39.1801C77.797 39.3926 77.787 39.6171 77.8175 39.8547C77.8296 39.9856 77.8522 40.1101 77.8811 40.2242C77.9079 40.3394 77.9447 40.4472 77.992 40.5493C78.0372 40.6518 78.0924 40.7523 78.1602 40.8523C78.2238 40.9528 78.3037 41.0569 78.4004 41.1632L77.8748 41.4144C77.6819 41.1935 77.5379 40.9601 77.4459 40.7173C77.3534 40.4734 77.2877 40.1855 77.2488 39.8542C77.212 39.5638 77.2241 39.2796 77.2835 38.9975C77.3408 38.7138 77.4496 38.4532 77.6099 38.2229C77.7712 37.9874 77.9836 37.7911 78.2548 37.632C78.5219 37.4703 78.8504 37.3682 79.2404 37.3232C79.5731 37.2845 79.887 37.3091 80.1808 37.4007C80.4757 37.4907 80.7311 37.632 80.953 37.822C81.1727 38.0104 81.3556 38.2391 81.5012 38.5107C81.6431 38.7808 81.733 39.0755 81.7724 39.3905C81.8092 39.7129 81.8082 39.9971 81.7619 40.2447C81.7146 40.4901 81.62 40.735 81.4828 40.9826L80.9656 40.7895Z" fill="#FFFFFF"/>
<path d="M80.9656 40.7895C81.0928 40.5566 81.1811 40.3357 81.2315 40.1269C81.2757 39.9165 81.2862 39.6915 81.2594 39.4523C81.2268 39.1948 81.1548 38.965 81.0439 38.7656C80.9309 38.5652 80.7895 38.3998 80.6176 38.2705C80.4441 38.1381 80.247 38.046 80.0284 37.9926C79.8034 37.9371 79.5674 37.9251 79.3208 37.9555C79.0375 37.9879 78.7973 38.0622 78.596 38.1763C78.3947 38.2904 78.2307 38.4317 78.1029 38.6034C77.9757 38.7709 77.8895 38.9635 77.8443 39.1801C77.797 39.3926 77.787 39.6171 77.8175 39.8547C77.8296 39.9856 77.8522 40.1101 77.8811 40.2242C77.9079 40.3394 77.9447 40.4472 77.992 40.5493C78.0372 40.6518 78.0924 40.7523 78.1602 40.8523C78.2238 40.9522 78.3037 41.0569 78.4004 41.1632L77.8748 41.4144C77.6819 41.1935 77.5379 40.9601 77.4459 40.7173C77.3534 40.4734 77.2877 40.1855 77.2488 39.8542C77.212 39.5638 77.2241 39.2796 77.2835 38.9975C77.3408 38.7138 77.4496 38.4532 77.6099 38.2229C77.7712 37.9874 77.9836 37.7911 78.2548 37.632C78.5219 37.4703 78.8504 37.3682 79.2404 37.3232C79.5731 37.2845 79.887 37.3091 80.1808 37.4007C80.4757 37.4907 80.7311 37.632 80.953 37.822C81.1727 38.0104 81.3556 38.2391 81.5012 38.5107C81.6431 38.7808 81.733 39.0755 81.7724 39.3905C81.8092 39.7129 81.8082 39.9971 81.7619 40.2447C81.7146 40.4901 81.62 40.735 81.4828 40.9826L80.9656 40.7895Z" stroke="#FFFFFF" stroke-width="0.5814"/>
<path d="M81.9285 43.2859L79.6325 43.243L81.8875 45.3893L81.8727 46.1864L80.1213 44.4656L77.4973 46.2848L77.5115 45.5285L79.6924 44.0301L78.9612 43.2304L77.5546 43.2043L77.5672 42.5684L81.9406 42.65L81.9285 43.2859Z" fill="#FFFFFF"/>
<path d="M81.9285 43.2859L79.6325 43.243L81.8875 45.3893L81.8727 46.1864L80.1213 44.4656L77.4973 46.2848L77.5115 45.5285L79.6924 44.0301L78.9612 43.2304L77.5546 43.2043L77.5672 42.5684L81.9406 42.65L81.9285 43.2859Z" stroke="#FFFFFF" stroke-width="0.5814"/>
<path d="M81.6954 47.7405L77.3525 47.2395L77.2791 47.8707L81.622 48.3717L81.6954 47.7405Z" fill="#FFFFFF"/>
<path d="M81.6954 47.7405L77.3525 47.2395L77.2791 47.8707L81.622 48.3717L81.6954 47.7405Z" stroke="#FFFFFF" stroke-width="0.5814"/>
<path d="M16.5535 79.6425C16.8137 79.2285 17.0791 78.7946 17.3503 78.3404C17.6216 77.8866 17.8917 77.4266 18.1603 76.9608C18.429 76.495 18.6813 76.047 18.9178 75.6157L18.9089 75.5985C18.4589 75.5985 18.0027 75.6011 17.5406 75.6068C17.0786 75.6126 16.6313 75.6356 16.1981 75.6759C16.2097 75.6126 16.2197 75.5524 16.2286 75.4948C16.2376 75.4373 16.2418 75.3771 16.2418 75.3137C16.2418 75.2504 16.2376 75.1902 16.2286 75.1327C16.2197 75.0751 16.2097 75.0149 16.1981 74.9516C16.4636 74.9516 16.6991 74.9547 16.9041 74.9605C17.1091 74.9662 17.3025 74.9704 17.4844 74.9736C17.6662 74.9762 17.8455 74.9809 18.0211 74.9861C18.1971 74.9919 18.3858 74.995 18.5882 74.995C18.7669 74.995 18.933 74.994 19.086 74.9908C19.239 74.9882 19.3961 74.9851 19.558 74.9819C19.7194 74.9793 19.8929 74.9746 20.0774 74.9694C20.2624 74.9636 20.4758 74.9579 20.7181 74.9521V75.107C20.1751 75.969 19.6558 76.8226 19.1596 77.6678C18.6629 78.5125 18.1693 79.3693 17.6789 80.237V80.2543C18.1293 80.2543 18.5104 80.2533 18.8221 80.2501C19.1338 80.2475 19.4051 80.2428 19.6358 80.2376C19.8666 80.2323 20.0642 80.2245 20.2287 80.2156C20.3933 80.2072 20.5536 80.1973 20.7097 80.1852C20.7039 80.2485 20.695 80.3087 20.684 80.3663C20.6724 80.4239 20.6666 80.4841 20.6666 80.5474C20.6666 80.6107 20.6724 80.6698 20.684 80.7243C20.695 80.7787 20.7039 80.8295 20.7097 80.875C20.346 80.8635 19.9954 80.8577 19.6579 80.8577C19.3199 80.8577 18.9488 80.8577 18.5451 80.8577C17.8465 80.8577 17.2636 80.8588 16.7958 80.8619C16.328 80.8645 16.0105 80.8693 15.8433 80.8745V80.7541C16.0573 80.427 16.2938 80.0565 16.5535 79.6425Z" fill="#FFFFFF"/>
<path d="M24.477 76.9738C24.5926 76.764 24.7051 76.5442 24.815 76.3144C24.9243 76.0846 25.0315 75.8533 25.1351 75.6204C25.2386 75.3875 25.3401 75.1651 25.4384 74.9521C25.502 74.9636 25.5666 74.9741 25.6334 74.9824C25.6996 74.9913 25.7674 74.9955 25.8368 74.9955C25.9062 74.9955 25.974 74.9913 26.0402 74.9824C26.1065 74.9741 26.1774 74.9636 26.2526 74.9521C26.1543 75.1133 26.0318 75.3242 25.8847 75.5859C25.7375 75.8476 25.5798 76.1307 25.4126 76.4353C25.2449 76.7404 25.0762 77.0518 24.9059 77.3711C24.7356 77.6898 24.5811 77.9845 24.4428 78.2545C24.4428 78.3927 24.4402 78.5319 24.4344 78.6727C24.4286 78.814 24.4255 78.9558 24.4255 79.0992C24.4255 79.3923 24.4297 79.6828 24.4381 79.9701C24.447 80.2574 24.4712 80.5594 24.5117 80.875C24.3908 80.8635 24.2678 80.8577 24.1437 80.8577C24.0197 80.8577 23.8972 80.8577 23.7758 80.8577C23.6549 80.8577 23.5319 80.8577 23.4078 80.8577C23.2838 80.8577 23.1608 80.8635 23.0399 80.875C23.0509 80.6107 23.0714 80.3406 23.1003 80.0648C23.1292 79.789 23.1434 79.5132 23.1434 79.2369C23.1434 79.105 23.1424 78.971 23.1392 78.836C23.1361 78.7009 23.1319 78.5675 23.1261 78.4351C22.9821 78.1477 22.816 77.8275 22.6283 77.4742C22.4407 77.1204 22.2588 76.7771 22.0827 76.4437C21.9066 76.1103 21.7447 75.8088 21.5975 75.5383C21.4503 75.2682 21.3421 75.073 21.2727 74.9521C21.4051 74.9636 21.5355 74.9741 21.6622 74.9824C21.7894 74.9913 21.9192 74.9955 22.0517 74.9955C22.1847 74.9955 22.3129 74.9913 22.437 74.9824C22.561 74.9741 22.6893 74.9636 22.8223 74.9521C22.9206 75.1651 23.0315 75.4006 23.1555 75.6592C23.2796 75.9177 23.4026 76.171 23.5235 76.418C23.6444 76.6651 23.7574 76.8891 23.8615 77.0906C23.9655 77.292 24.0486 77.4412 24.1127 77.5391H24.1301C24.2457 77.3721 24.3613 77.1837 24.477 76.9738Z" fill="#FFFFFF"/>
<path d="M26.7714 81.703C26.8524 81.6512 26.9186 81.591 26.9706 81.5219C27.0227 81.4528 27.0616 81.367 27.0873 81.2633C27.1136 81.1597 27.132 81.0304 27.1436 80.875C27.1662 80.5186 27.184 80.1554 27.1956 79.7848C27.2072 79.4143 27.2129 78.9898 27.2129 78.5131V77.3407C27.2129 76.8634 27.2072 76.4395 27.1956 76.0689C27.184 75.6984 27.1667 75.3263 27.1436 74.9526C27.2419 74.9641 27.3486 74.9746 27.4637 74.983C27.5793 74.9919 27.7092 74.996 27.8532 74.996C27.9972 74.996 28.127 74.9919 28.2432 74.983C28.3583 74.9746 28.465 74.9641 28.5633 74.9526C28.5402 75.3263 28.5228 75.6984 28.5113 76.0689C28.4997 76.4395 28.4939 76.8639 28.4939 77.3407V78.5131C28.4939 78.7543 28.4966 79.0076 28.5029 79.2719C28.5087 79.5362 28.5113 79.8063 28.5113 80.0826C28.5113 80.7551 28.351 81.2607 28.0308 81.5999C27.7107 81.9385 27.2324 82.1604 26.5974 82.2635L26.4676 81.8584C26.5895 81.8066 26.6905 81.7548 26.7714 81.703Z" fill="#FFFFFF"/>
<path d="M32.545 76.0684C32.5319 75.6979 32.5125 75.3258 32.4867 74.9521C32.585 74.9636 32.6917 74.9741 32.8068 74.9824C32.9225 74.9913 33.0523 74.9955 33.1963 74.9955C33.4444 74.9955 33.7041 74.9882 33.9758 74.9741C34.2471 74.9599 34.5067 74.9521 34.7548 74.9521C35.0145 74.9521 35.251 74.9777 35.465 75.0295C35.6784 75.0814 35.8634 75.1604 36.019 75.2666C36.1746 75.3729 36.2944 75.511 36.3785 75.6806C36.4621 75.8502 36.5042 76.0527 36.5042 76.2888C36.5042 76.5248 36.4553 76.7268 36.3565 76.8964C36.2576 77.066 36.1373 77.2067 35.9954 77.3187C35.8534 77.4307 35.6999 77.5187 35.5349 77.5815C35.3698 77.6448 35.2206 77.6882 35.087 77.7107V77.728C35.2195 77.7338 35.3751 77.7641 35.5538 77.8185C35.7325 77.873 35.9023 77.9583 36.0637 78.0729C36.2251 78.188 36.3617 78.3362 36.4737 78.5172C36.5862 78.6983 36.6424 78.9181 36.6424 79.1767C36.6424 79.487 36.5862 79.7513 36.4737 79.9701C36.3617 80.1883 36.2114 80.3668 36.0248 80.5045C35.8377 80.6426 35.6227 80.7384 35.3809 80.7934C35.1391 80.8478 34.8884 80.875 34.6292 80.875C34.3985 80.875 34.184 80.8724 33.9853 80.8666C33.7866 80.8609 33.5779 80.8577 33.3593 80.8577C33.2037 80.8577 33.0434 80.8577 32.8794 80.8577C32.7154 80.8577 32.5839 80.8635 32.4862 80.875C32.5119 80.5186 32.5314 80.1554 32.5445 79.7848C32.5571 79.4143 32.564 78.9898 32.564 78.5131V77.3407C32.5645 76.8634 32.5577 76.4395 32.545 76.0684ZM35.1754 76.0601C35.1433 75.9365 35.0897 75.8303 35.015 75.7408C34.9399 75.6518 34.8447 75.5801 34.7296 75.5252C34.6145 75.4702 34.4699 75.443 34.2965 75.443C34.1693 75.443 34.0815 75.4446 34.0326 75.4472C33.9837 75.4503 33.9301 75.4577 33.8723 75.4686C33.8607 75.6817 33.8518 75.8968 33.8465 76.1155C33.8408 76.3338 33.8376 76.518 33.8376 76.6671C33.8376 76.8221 33.8387 76.9707 33.8418 77.1115C33.8444 77.2523 33.846 77.3972 33.846 77.5469H34.2355C34.3564 77.5469 34.4763 77.5244 34.595 77.4784C34.7138 77.4323 34.819 77.3648 34.9115 77.2758C35.0035 77.1869 35.0786 77.0733 35.1365 76.9351C35.1938 76.7969 35.2232 76.6363 35.2232 76.4526C35.2227 76.3144 35.2069 76.1836 35.1754 76.0601ZM35.0108 78.3362C34.829 78.1378 34.5646 78.0389 34.2187 78.0389C34.1377 78.0389 34.0684 78.0399 34.0105 78.0431C33.9527 78.0462 33.898 78.0473 33.846 78.0473C33.846 78.1682 33.8444 78.2932 33.8418 78.4225C33.8387 78.5518 33.8376 78.7057 33.8376 78.8836C33.8376 79.0218 33.8387 79.1626 33.8418 79.306C33.8444 79.4499 33.846 79.5901 33.846 79.7283C33.846 79.8665 33.8471 79.9926 33.8502 80.1077C33.8528 80.2229 33.8544 80.3176 33.8544 80.3919C33.9354 80.3977 34.0105 80.4024 34.0799 80.405C34.1493 80.4076 34.2329 80.4092 34.3312 80.4092C34.4584 80.4092 34.5793 80.383 34.6949 80.3317C34.8106 80.2805 34.9115 80.204 34.9982 80.103C35.0849 80.0026 35.1538 79.8801 35.2064 79.7367C35.2584 79.5933 35.2842 79.4263 35.2842 79.2364C35.2831 78.8349 35.1927 78.5345 35.0108 78.3362Z" fill="#FFFFFF"/>
<path d="M37.7883 76.0684C37.7783 75.6979 37.7631 75.3258 37.7431 74.9521C38.0028 74.9579 38.2598 74.9667 38.5137 74.9777C38.7676 74.9893 39.0246 74.995 39.2843 74.995C39.7111 74.995 40.0911 74.9908 40.4228 74.9819C40.7545 74.9735 40.9784 74.9631 41.0941 74.9516C41.0709 75.0437 41.0594 75.1646 41.0594 75.3137C41.0594 75.4058 41.062 75.4776 41.0683 75.5294C41.0741 75.5812 41.0825 75.6382 41.0941 75.7015C40.9264 75.6906 40.7435 75.679 40.5442 75.667C40.345 75.656 40.1516 75.6445 39.9639 75.6325C39.7763 75.6215 39.6076 75.6126 39.4572 75.6068C39.3069 75.6011 39.2002 75.5985 39.1371 75.5985C39.114 75.9146 39.1008 76.2275 39.0982 76.5379C39.0956 76.8482 39.094 77.1617 39.094 77.4779C39.4693 77.4721 39.8083 77.4637 40.1116 77.4517C40.4144 77.4407 40.7308 77.426 41.0599 77.4088C41.0426 77.5066 41.031 77.581 41.0252 77.6328C41.0194 77.6846 41.0163 77.739 41.0163 77.7966C41.0163 77.8426 41.0205 77.8903 41.0294 77.9389C41.0383 77.9876 41.0483 78.0583 41.0599 78.1499C40.4018 78.098 39.7463 78.0724 39.094 78.0724C39.094 78.2566 39.093 78.4403 39.0898 78.6245C39.0872 78.8088 39.0856 78.9925 39.0856 79.1762C39.0856 79.5499 39.094 79.9089 39.1113 80.2538C39.4404 80.2538 39.7695 80.2454 40.0985 80.2281C40.4276 80.2109 40.7592 80.1821 41.0946 80.1418C41.083 80.2051 41.0741 80.2621 41.0688 80.314C41.0631 80.3658 41.0599 80.4375 41.0599 80.5296C41.0599 80.6217 41.0625 80.6934 41.0688 80.7452C41.0746 80.797 41.083 80.8405 41.0946 80.8745C40.939 80.8687 40.7466 80.8645 40.5185 80.8619C40.2904 80.8588 39.9776 80.8577 39.5792 80.8577C39.227 80.8577 38.941 80.8577 38.7218 80.8577C38.5079 80.8577 38.3366 80.8577 38.2067 80.8577C38.0769 80.8577 37.9786 80.8588 37.9124 80.8619C37.8461 80.8645 37.7899 80.8693 37.7436 80.8745C37.7641 80.5181 37.7788 80.1549 37.7888 79.7843C37.7988 79.4138 37.8041 78.9893 37.8041 78.5125V77.3402C37.803 76.8634 37.7983 76.4395 37.7883 76.0684Z" fill="#FFFFFF"/>
<path d="M42.3062 79.6425C42.5664 79.2285 42.8318 78.7946 43.1031 78.3404C43.3743 77.8866 43.6445 77.4266 43.9131 76.9608C44.1817 76.495 44.434 76.047 44.6705 75.6157L44.6616 75.5985C44.2117 75.5985 43.7554 75.6011 43.2934 75.6068C42.8313 75.6126 42.384 75.6356 41.9509 75.6759C41.9624 75.6126 41.9724 75.5524 41.9814 75.4948C41.9903 75.4373 41.9945 75.3771 41.9945 75.3137C41.9945 75.2504 41.9903 75.1902 41.9814 75.1327C41.9724 75.0751 41.9624 75.0149 41.9509 74.9516C42.2163 74.9516 42.4518 74.9547 42.6568 74.9605C42.8618 74.9662 43.0552 74.9704 43.2371 74.9736C43.419 74.9762 43.5982 74.9809 43.7738 74.9861C43.9499 74.9919 44.1386 74.995 44.341 74.995C44.5197 74.995 44.6858 74.994 44.8387 74.9908C44.9917 74.9882 45.1494 74.9851 45.3108 74.9819C45.4721 74.9793 45.6456 74.9746 45.8301 74.9694C46.0151 74.9636 46.2285 74.9579 46.4709 74.9521V75.107C45.9284 75.969 45.4085 76.8226 44.9123 77.6678C44.4156 78.5125 43.922 79.3693 43.4316 80.237V80.2543C43.8821 80.2543 44.2632 80.2533 44.5749 80.2501C44.8866 80.2475 45.1573 80.2428 45.3886 80.2376C45.6198 80.2323 45.817 80.2245 45.982 80.2156C46.146 80.2072 46.3069 80.1973 46.4625 80.1852C46.4567 80.2485 46.4483 80.3087 46.4367 80.3663C46.4251 80.4239 46.4194 80.4841 46.4194 80.5474C46.4194 80.6107 46.4251 80.6698 46.4367 80.7243C46.4477 80.7787 46.4567 80.8295 46.4625 80.875C46.0992 80.8635 45.7481 80.8577 45.4106 80.8577C45.0727 80.8577 44.7016 80.8577 44.2979 80.8577C43.5993 80.8577 43.0163 80.8588 42.5485 80.8619C42.0807 80.8645 41.7632 80.8693 41.5961 80.8745V80.7541C41.8095 80.427 42.0465 80.0565 42.3062 79.6425Z" fill="#FFFFFF"/>
<path d="M50.0368 76.0684C50.0242 75.6979 50.0042 75.3258 49.9784 74.9521C50.0773 74.9636 50.1834 74.9741 50.2991 74.9824C50.4142 74.9913 50.544 74.9955 50.6886 74.9955C50.9367 74.9955 51.1963 74.9882 51.4676 74.9741C51.7388 74.9599 51.9985 74.9521 52.2466 74.9521C52.5062 74.9521 52.7428 74.9777 52.9567 75.0295C53.1701 75.0814 53.3551 75.1604 53.5113 75.2666C53.6674 75.3729 53.7867 75.511 53.8708 75.6806C53.9544 75.8502 53.9964 76.0527 53.9964 76.2888C53.9964 76.5248 53.947 76.7268 53.8487 76.8964C53.7499 77.066 53.6301 77.2067 53.4876 77.3187C53.3452 77.4307 53.1922 77.5187 53.0271 77.5815C52.8621 77.6448 52.7123 77.6882 52.5793 77.7107V77.728C52.7118 77.7338 52.8674 77.7641 53.0461 77.8185C53.2248 77.873 53.3946 77.9583 53.5559 78.0729C53.7173 78.188 53.8535 78.3362 53.9659 78.5172C54.0784 78.6983 54.1347 78.9181 54.1347 79.1767C54.1347 79.487 54.0784 79.7513 53.9659 79.9701C53.8535 80.1889 53.7042 80.3668 53.517 80.5045C53.3299 80.6421 53.1149 80.7384 52.8731 80.7934C52.6308 80.8478 52.3801 80.875 52.1209 80.875C51.8907 80.875 51.6757 80.8724 51.477 80.8666C51.2783 80.8609 51.0697 80.8577 50.851 80.8577C50.6954 80.8577 50.5351 80.8577 50.3711 80.8577C50.2071 80.8577 50.0757 80.8635 49.9779 80.875C50.0042 80.5186 50.0236 80.1554 50.0363 79.7848C50.0494 79.4143 50.0557 78.9898 50.0557 78.5131V77.3407C50.0562 76.8634 50.0499 76.4395 50.0368 76.0684ZM52.6671 76.0601C52.635 75.9365 52.5819 75.8303 52.5068 75.7408C52.4316 75.6518 52.3365 75.5801 52.2213 75.5252C52.1052 75.4707 51.9611 75.443 51.7882 75.443C51.6615 75.443 51.5732 75.4446 51.5243 75.4472C51.4749 75.4503 51.4218 75.4577 51.3635 75.4686C51.3525 75.6817 51.3435 75.8968 51.3377 76.1155C51.332 76.3343 51.3288 76.518 51.3288 76.6671C51.3288 76.8221 51.3304 76.9707 51.333 77.1115C51.3362 77.2523 51.3377 77.3972 51.3377 77.5469H51.7272C51.8481 77.5469 51.968 77.5244 52.0868 77.4784C52.205 77.4323 52.3107 77.3648 52.4032 77.2758C52.4957 77.1869 52.5704 77.0733 52.6282 76.9351C52.686 76.7969 52.7149 76.6363 52.7149 76.4526C52.7149 76.3144 52.6986 76.1836 52.6671 76.0601ZM52.5026 78.3362C52.3207 78.1378 52.0563 78.0389 51.7099 78.0389C51.6295 78.0389 51.5601 78.0399 51.5017 78.0431C51.4444 78.0462 51.3893 78.0473 51.3377 78.0473C51.3377 78.1682 51.3362 78.2932 51.333 78.4225C51.3304 78.5518 51.3288 78.7057 51.3288 78.8836C51.3288 79.0218 51.3304 79.1626 51.333 79.306C51.3362 79.4499 51.3377 79.5901 51.3377 79.7283C51.3377 79.8665 51.3393 79.9926 51.3419 80.1077C51.3451 80.2229 51.3467 80.3176 51.3467 80.3919C51.4271 80.3977 51.5023 80.4024 51.5716 80.405C51.641 80.4076 51.7246 80.4092 51.8234 80.4092C51.9501 80.4092 52.0715 80.383 52.1866 80.3317C52.3018 80.2805 52.4032 80.204 52.4894 80.103C52.5761 80.0026 52.6455 79.8801 52.6976 79.7367C52.7501 79.5933 52.7754 79.4263 52.7754 79.2364C52.7754 78.8349 52.6844 78.5345 52.5026 78.3362Z" fill="#FFFFFF"/>
<path d="M55.1518 76.7284C55.3111 76.3547 55.5345 76.0271 55.8231 75.7455C56.1116 75.4639 56.4607 75.2425 56.8707 75.0814C57.2801 74.9207 57.7364 74.8401 58.2389 74.8401C58.7009 74.8401 59.1309 74.9034 59.5294 75.0295C59.9278 75.1557 60.2737 75.3457 60.5685 75.5984C60.8634 75.8512 61.0952 76.1715 61.2655 76.5593C61.4359 76.9477 61.521 77.3999 61.521 77.9175C61.521 78.3487 61.4385 78.7512 61.274 79.1249C61.1094 79.4985 60.8813 79.8246 60.5896 80.1036C60.2978 80.3825 59.9504 80.5992 59.5462 80.7546C59.142 80.9095 58.6978 80.9875 58.2131 80.9875C57.7569 80.9875 57.328 80.9315 56.9274 80.8195C56.5258 80.7075 56.1763 80.5264 55.8793 80.2763C55.5823 80.0261 55.3468 79.7074 55.1734 79.319C55.0004 78.9307 54.9137 78.467 54.9137 77.9264C54.9137 77.5014 54.9931 77.1021 55.1518 76.7284ZM59.9625 76.7326C59.87 76.4369 59.7417 76.1851 59.5772 75.9784C59.4132 75.7711 59.214 75.612 58.9801 75.5C58.7461 75.388 58.4902 75.332 58.2137 75.332C57.9188 75.332 57.6554 75.4022 57.421 75.543C57.1876 75.6843 56.9895 75.8748 56.8281 76.1166C56.6662 76.3578 56.5432 76.641 56.4601 76.966C56.376 77.291 56.3345 77.6369 56.3345 78.0049C56.3345 78.4644 56.3834 78.8527 56.4817 79.1688C56.58 79.4849 56.7119 79.7393 56.8801 79.9319C57.0473 80.1245 57.2407 80.2637 57.4604 80.3501C57.6796 80.4364 57.9104 80.4799 58.1532 80.4799C58.4129 80.4799 58.661 80.4254 58.8975 80.316C59.1341 80.2072 59.3406 80.0402 59.5167 79.8162C59.6928 79.5917 59.8342 79.3075 59.9415 78.9626C60.0482 78.6177 60.1018 78.2095 60.1018 77.7385C60.1007 77.3637 60.0545 77.0288 59.9625 76.7326ZM58.2778 73.6934C58.4649 73.4751 58.6142 73.314 58.7241 73.2109C58.8334 73.1072 58.9175 73.0444 58.9753 73.0214C59.0331 72.9984 59.0936 72.9868 59.1572 72.9868C59.296 72.9868 59.3985 73.0271 59.4647 73.1072C59.5309 73.1873 59.564 73.2768 59.564 73.3747C59.564 73.4322 59.553 73.4867 59.5299 73.5385C59.5067 73.5903 59.4431 73.6578 59.3396 73.741C59.2355 73.8242 59.0784 73.9336 58.8676 74.0686C58.6573 74.2037 58.364 74.3832 57.9887 74.6077H57.5125C57.8352 74.2162 58.0907 73.9116 58.2778 73.6934Z" fill="#FFFFFF"/>
<path d="M62.6207 76.0684C62.6091 75.6979 62.5912 75.3258 62.5681 74.9521C62.6669 74.9636 62.7731 74.9741 62.8887 74.9824C63.0038 74.9913 63.1337 74.9955 63.2782 74.9955C63.4223 74.9955 63.5521 74.9913 63.6677 74.9824C63.7834 74.9741 63.8901 74.9636 63.9878 74.9521C63.9647 75.3258 63.9474 75.6979 63.9358 76.0684C63.9242 76.439 63.9185 76.8634 63.9185 77.3402V78.5125C63.9185 78.8402 63.92 79.1563 63.9227 79.4609C63.9258 79.766 63.93 80.0298 63.9358 80.2543C64.2649 80.2543 64.5939 80.2459 64.923 80.2286C65.252 80.2114 65.5837 80.1826 65.919 80.1423C65.9075 80.2056 65.8986 80.2627 65.8928 80.3145C65.887 80.3663 65.8838 80.438 65.8838 80.5301C65.8838 80.6222 65.887 80.6939 65.8928 80.7457C65.8986 80.7975 65.907 80.841 65.919 80.875C65.7629 80.8692 65.5711 80.8651 65.3429 80.8624C65.1148 80.8593 64.8021 80.8583 64.4036 80.8583C64.0514 80.8583 63.7655 80.8583 63.5463 80.8583C63.3324 80.8583 63.161 80.8583 63.0312 80.8583C62.9013 80.8583 62.8031 80.8593 62.7363 80.8624C62.6701 80.8651 62.6138 80.8698 62.5676 80.875C62.5907 80.5186 62.608 80.1554 62.6201 79.7848C62.6312 79.4143 62.637 78.9898 62.637 78.5131V77.3407C62.6375 76.8634 62.6322 76.4395 62.6207 76.0684Z" fill="#FFFFFF"/>
<path d="M68.6171 80.8713C68.2965 80.7939 68.0179 80.6641 67.7814 80.483C67.5443 80.3019 67.3582 80.069 67.2231 79.7848C67.087 79.5001 67.0192 79.1537 67.0192 78.746C67.0192 78.5162 67.0208 78.3105 67.0239 78.1294C67.0265 77.9483 67.0281 77.7803 67.0281 77.6249C67.0281 77.4695 67.0297 77.3203 67.0328 77.1769C67.0355 77.0335 67.037 76.8838 67.037 76.7284C67.037 76.2626 67.0339 75.8868 67.0281 75.599C67.0223 75.3111 67.0139 75.096 67.0018 74.9521C67.1175 74.9636 67.2357 74.9741 67.3572 74.9824C67.4781 74.9913 67.5969 74.9955 67.7125 74.9955C67.8281 74.9955 67.9459 74.9913 68.0673 74.9824C68.1887 74.9741 68.307 74.9636 68.4226 74.9521C68.3648 75.5095 68.3301 76.0286 68.3191 76.5086C68.3075 76.9885 68.3017 77.4757 68.3017 77.9698C68.3017 78.4932 68.3391 78.9155 68.4142 79.2369C68.4894 79.5587 68.6003 79.8073 68.748 79.9827C68.8947 80.158 69.0755 80.2742 69.2889 80.3317C69.5023 80.3893 69.7509 80.4181 70.0337 80.4181C70.3796 80.4181 70.6514 80.3317 70.8474 80.1596C71.044 79.9869 71.1922 79.7571 71.2937 79.4698C71.3946 79.1824 71.4572 78.8532 71.4798 78.4827C71.5024 78.1122 71.5139 77.7254 71.5139 77.3229C71.5139 76.9262 71.5082 76.5311 71.4971 76.1375C71.4855 75.7439 71.4677 75.3488 71.4446 74.9521C71.5255 74.9636 71.6038 74.9741 71.6785 74.9824C71.7536 74.9913 71.8225 74.9955 71.8866 74.9955C71.9618 74.9955 72.0338 74.9913 72.1027 74.9824C72.172 74.9741 72.2446 74.9636 72.3192 74.9521C72.3082 75.0787 72.2961 75.2483 72.2851 75.4608C72.2735 75.6733 72.2619 75.9193 72.2504 76.1977C72.2393 76.4766 72.2288 76.7844 72.2199 77.1204C72.2109 77.4569 72.2073 77.8117 72.2073 78.1854C72.2073 79.1856 71.9907 79.9026 71.5581 80.3365C71.125 80.7703 70.49 80.9875 69.6526 80.9875C69.2826 80.9875 68.9378 80.9488 68.6171 80.8713Z" fill="#FFFFFF"/>
</svg>
