<?xml version="1.0" encoding="utf-8"?>
<!-- Generator: Adobe Illustrator 16.0.0, SVG Export Plug-In . SVG Version: 6.00 Build 0)  -->
<!DOCTYPE svg PUBLIC "-//W3C//DTD SVG 1.1//EN" "http://www.w3.org/Graphics/SVG/1.1/DTD/svg11.dtd">
<svg version="1.1" id="Warstwa_1" xmlns="http://www.w3.org/2000/svg" xmlns:xlink="http://www.w3.org/1999/xlink" x="0px" y="0px"
	 width="234px" height="214px" viewBox="0 0 234 214" enable-background="new 0 0 234 214" xml:space="preserve">
<path fill="#87AADE" d="M103.483,92.612c0.289-1.648,1.133-7.031,0.191-8.476c-1.597-2.786-5.039-3.168-7.304-5.25
	c-2.59-1.481-4.84-4.844-7.555-6.168c-1.934-1.715-3.453-3.2-4.008-5.875c-0.359-1.664-1.598-2.735-1.543-0.719
	c-1.687-1.449-4.441-4.047-2.984-0.617c1.676,2.812,4.07,5.574,5.41,8.668c1.129,3.07,4.191,4.535,6.293,6.746
	C95.299,86.147,98.308,89.374,103.483,92.612z"/>
<path fill="#87AADE" d="M123.374,86.956l3.773,1.64c-7.621,9.145,5.68-8.093,8.797-9.812c1.918-2.023,4.32-3.453,5.395-6.215
	c1.359-3.203,3.199-5.406,4.461-7.871c3.184-6.074-0.883-3.129-1.879-0.871c-1.254-2.758-1.43,2.789-2.633,3.527
	c-2.289,2.469-6.277,4.778-8.156,7.645c-2.25,2.242-5.207,3.601-7.914,5.195c-0.305,0.188-1.621,1.141-4.52,0.488
	C118.437,80.171,123.042,84.745,123.374,86.956z"/>
<path fill="#87AADE" d="M114.199,107.268l-11.153,8.891c-0.265,0.414-0.543,0.836-0.836,1.273
	c-2.519,3.301-5.687,7.223-6.769,11.247c-0.793,2.609-0.883,5.531-2.856,7.637c-2.011,2.062-3.468,4.539-4.015,7.391
	c-0.93,2.625-1.742,7.308-3.266,8.351c-2.945,0.935-6.578,2.192-3.578,2.677c0.645,0.102,2.203-0.141,3.531-0.121
	c0.578,0,1.071,0.258,1.5,0.316c0.063-0.047,1.051,0.414,1.391-0.152c0.414-0.684,1.516-4.539,2.793-6.793
	c1.609-2.461,3.711-4.695,4.43-7.629c1.195-1.887,2.746-3.531,3.937-5.43l0.047-0.075l0.699-1.3
	c0.117-0.246,0.227-0.484,0.328-0.738c0.106-0.348,0.489-0.966,0.91-1.582l10.985-9.622L114.199,107.268z"/>
<path fill="#87AADE" d="M114.002,64.846c-0.296-0.019-0.586-0.003-0.882,0.028c-1.844,0.176-3.586,1.254-4.121,3.211
	c-1.368,3.621,1.003,6.668,1.554,10.09c-1.512,2.714-2.773,4.98-7.816,4.582c-0.703-0.055,0.922,1.547,0.57,2.234
	c-0.035,0.063,1.711,2.188,0.977,1.367l2.761-2.777l-1.445,16.242c0.746,10.645,1.711,12.336-2.594,16.887l19.641,2.543
	c0.301-4.207,0.094-8.637-0.48-12.391c-0.199-2.808-0.453-5.18-0.133-7.437l-1.445-16.141l5.324,0.695
	c-1.414-1.965-4.141-2.808-6.449-3.746c-0.964-0.762-2.894-0.98-2.355-2.594c0.461-3.078,2.726-5.804,1.258-9.101
	C118.069,66.214,116.082,64.968,114.002,64.846z"/>
<path fill="#87AADE" d="M113.199,107.077l11.155,8.891c0.266,0.418,0.543,0.836,0.836,1.273c2.516,3.301,5.688,7.223,6.77,11.246
	c0.789,2.608,0.879,5.535,2.852,7.637c2.012,2.062,3.469,4.543,4.016,7.39c0.934,2.629,1.742,7.31,3.27,8.353
	c2.945,0.938,6.578,2.195,3.574,2.676c-0.645,0.105-2.199-0.141-3.531-0.117c-0.574,0-1.066,0.257-1.5,0.312
	c-0.059-0.047-1.047,0.414-1.391-0.148c-0.414-0.684-1.512-4.539-2.793-6.793c-1.609-2.465-3.707-4.696-4.43-7.629
	c-1.191-1.887-2.746-3.531-3.938-5.43l-0.043-0.074l-0.699-1.301c-0.121-0.246-0.227-0.484-0.328-0.742
	c-0.105-0.348-0.488-0.961-0.914-1.582l-13.772-11.914L113.199,107.077z"/>
<path fill="#0044AA" d="M117.569,159.69c-0.039-0.091-1.418-0.211-1.438-1.052c-0.019-1.019,1.231-5.979,1.254-9.284
	c-0.207-3.746-1.105-7.531-0.031-11.23c-0.152-3.844-1.316-7.629-0.742-11.535c0.355-1.559-0.606-8.664-1.024-3.649
	c-0.308,4.497,0.383,9.083-0.886,13.465c0.656,3.922,0.711,7.694,0.054,11.621c-0.066,3.414,0.942,7.237,0.41,10.616
	c-0.062,0.399-0.886,1.153-0.988,1.548c-3.215,5.027-4.07,5.387-4.41,4.289c-0.352-1.137,0.379-2.934,1.734-5.688
	c0.899-1.41-0.695-5.821-0.777-7.403c-0.906-4.496-3.258-8.894-2.148-13.593c0.812-3.359,0.847-6.992-0.676-10.157
	c-1.574-5.91-1.504-13.765-0.574-19.858c0.218-3.129,0.496-5.734,0.039-8.23c-1.008,3.406-0.707,7.32-3.067,10.269
	c-2.672,3.543-3.929,6.977-5.843,9.945c-4.676,7.383-4.02,1.012-2.161-1.527c-3.843,0.371,2.18-3.348,2.227-5.148
	c1.269-4.106,1.273-9.985,3.238-13.887c1.043-3.914,0.649-8.035,0.68-12.043c0.148-4.414,4.344-5.574,7.684-6.926
	c1-0.789,2.988-1.035,2.433-2.707c-0.476-3.187-2.824-5.992-1.305-9.398c0.625-4.895,8.434-5.121,9.695-0.492
	c1.418,3.75-1.043,6.902-1.613,10.441c1.949,3.512,7.406,2.594,9.23,6.168c2.051,3.539,0.277,7.586,1.129,11.414
	c-0.016,3.801,2.254,8.441,1.984,12.285c0.66,3.227,1.348,5.848,3.949,8.168c1.605,1.457,1.996,3.496-0.199,2.149
	c0.527,2.785,1.633,7.476-1.23,3.675c-2.035-3.636-3.555-8.031-6.117-11.484c-2.668-3.203-2.32-7.527-3.418-11.254
	c-0.523,3.133-0.48,5.871-0.246,9.242c0.676,5.25,1.672,11.614,0.305,16.742c-0.789,3.387-2.559,6.657-1.723,10.235
	c0.91,3.562,0.934,7.23-0.277,10.722c-0.648,3.497-2.75,9.196-1.73,11.317c2.656,2.914,5.871,6.601,2.25,5.219
	c-0.777-0.297-2.324-1.539-3.809-2.359C118.795,159.948,118.081,159.901,117.569,159.69z"/>
<path fill="#87AADE" d="M115.963,29.741c-45.543,0-82.5,36.93-82.5,82.469c0,12.367,2.75,24.082,7.629,34.609
	c0.227-0.211,0.469-0.41,0.699-0.625c-4.75-10.349-7.425-21.848-7.425-33.984c0-45.055,36.543-81.571,81.597-81.571
	c45.055,0,81.547,36.516,81.547,81.571c0,11.601-2.414,22.621-6.777,32.609c0.238,0.207,0.465,0.422,0.699,0.625
	c4.484-10.168,6.977-21.406,6.977-33.234C198.409,66.671,161.502,29.741,115.963,29.741z"/>
<polygon fill="#0044AA" points="41.608,117.022 42.589,116.932 42.967,121.049 45.503,120.816 45.163,117.117 46.144,117.026 
	46.488,120.722 50.272,120.373 50.382,121.584 42.101,122.35 "/>
<polygon fill="none" stroke="#0044AA" stroke-width="0.5814" points="41.608,117.022 42.589,116.932 42.967,121.049 45.503,120.816 
	45.163,117.117 46.144,117.026 46.488,120.722 50.272,120.373 50.382,121.584 42.101,122.35 "/>
<rect x="41.542" y="112.714" transform="matrix(-1 0.0056 -0.0056 -1 92.0349 226.385)" fill="#0044AA" width="8.32" height="1.214"/>
<rect x="41.542" y="112.714" transform="matrix(-1 0.0056 -0.0056 -1 92.0349 226.385)" fill="none" stroke="#0044AA" stroke-width="0.5814" width="8.32" height="1.214"/>
<polygon fill="#0044AA" points="42.132,103.011 42.999,103.085 48.941,108.976 49.42,103.558 50.429,103.647 49.812,110.581 
	48.984,110.506 42.983,104.577 42.534,109.584 41.553,109.499 "/>
<polygon fill="none" stroke="#0044AA" stroke-width="0.5814" points="42.132,103.011 42.999,103.085 48.941,108.976 49.42,103.558 
	50.429,103.647 49.812,110.581 48.984,110.506 42.983,104.577 42.534,109.584 41.553,109.499 "/>
<path fill="#0044AA" d="M42.944,98.604l7.949,1.492c0.562,0.11,1.023,0.274,1.387,0.489c0.363,0.219,0.648,0.481,0.855,0.785
	c0.207,0.309,0.348,0.653,0.418,1.027c0.07,0.379,0.097,0.773,0.081,1.199l-1.054,0.191c0.011-0.343-0.004-0.655-0.04-0.929
	c-0.042-0.282-0.128-0.516-0.261-0.719c-0.137-0.204-0.337-0.379-0.602-0.521c-0.266-0.14-0.613-0.25-1.047-0.331l-7.914-1.493
	L42.944,98.604z"/>
<path fill="none" stroke="#0044AA" stroke-width="0.5814" d="M42.944,98.604l7.949,1.492c0.562,0.11,1.023,0.274,1.387,0.489
	c0.363,0.219,0.648,0.481,0.855,0.785c0.207,0.309,0.348,0.653,0.418,1.027c0.07,0.379,0.097,0.773,0.081,1.199l-1.054,0.191
	c0.011-0.343-0.004-0.655-0.04-0.929c-0.042-0.282-0.128-0.516-0.261-0.719c-0.137-0.204-0.337-0.379-0.602-0.521
	c-0.266-0.14-0.613-0.25-1.047-0.331l-7.914-1.493L42.944,98.604z"/>
<path fill="#0044AA" d="M47.812,95.628c0.508,0.161,0.984,0.214,1.426,0.163c0.446-0.042,0.843-0.164,1.199-0.367
	c0.355-0.195,0.66-0.46,0.918-0.796c0.258-0.328,0.454-0.707,0.585-1.137c0.129-0.422,0.18-0.849,0.157-1.27
	c-0.032-0.418-0.134-0.809-0.313-1.176c-0.184-0.363-0.441-0.688-0.782-0.976c-0.335-0.285-0.761-0.508-1.273-0.668
	c-0.503-0.152-0.976-0.208-1.421-0.165c-0.438,0.05-0.836,0.172-1.195,0.372c-0.352,0.199-0.66,0.464-0.922,0.796
	c-0.258,0.332-0.453,0.71-0.586,1.132c-0.129,0.425-0.179,0.848-0.157,1.27c0.031,0.422,0.133,0.816,0.313,1.176
	c0.184,0.367,0.445,0.691,0.786,0.98C46.886,95.253,47.307,95.475,47.812,95.628z M50.089,88.238
	c0.618,0.191,1.136,0.476,1.574,0.847c0.434,0.378,0.778,0.816,1.028,1.312c0.246,0.503,0.39,1.043,0.434,1.625
	c0.035,0.587-0.04,1.176-0.219,1.766c-0.188,0.606-0.457,1.133-0.817,1.586c-0.36,0.458-0.781,0.824-1.266,1.095
	c-0.484,0.276-1.012,0.445-1.59,0.507c-0.57,0.066-1.164,0.004-1.777-0.188c-0.61-0.183-1.133-0.464-1.575-0.843
	c-0.434-0.375-0.777-0.812-1.028-1.313c-0.245-0.496-0.39-1.035-0.433-1.617c-0.039-0.578,0.031-1.169,0.215-1.774
	c0.188-0.593,0.461-1.12,0.82-1.581c0.359-0.458,0.785-0.825,1.27-1.102c0.487-0.27,1.015-0.439,1.585-0.505
	C48.886,87.991,49.479,88.049,50.089,88.238z"/>
<path fill="none" stroke="#0044AA" stroke-width="0.5814" d="M47.812,95.628c0.508,0.161,0.984,0.214,1.426,0.163
	c0.446-0.042,0.843-0.164,1.199-0.367c0.355-0.195,0.66-0.46,0.918-0.796c0.258-0.328,0.454-0.707,0.585-1.137
	c0.129-0.422,0.18-0.849,0.157-1.27c-0.032-0.418-0.133-0.809-0.313-1.176c-0.184-0.363-0.441-0.688-0.782-0.976
	c-0.335-0.285-0.761-0.508-1.273-0.668c-0.503-0.152-0.976-0.208-1.421-0.165c-0.438,0.05-0.836,0.172-1.195,0.372
	c-0.352,0.199-0.66,0.464-0.922,0.796c-0.258,0.332-0.453,0.71-0.586,1.132c-0.129,0.425-0.179,0.848-0.157,1.27
	c0.031,0.422,0.133,0.816,0.313,1.176c0.184,0.367,0.445,0.691,0.786,0.98C46.886,95.253,47.307,95.475,47.812,95.628z
	 M50.089,88.238c0.618,0.191,1.136,0.476,1.574,0.847c0.434,0.378,0.778,0.816,1.028,1.312c0.246,0.503,0.39,1.043,0.434,1.625
	c0.035,0.587-0.04,1.176-0.219,1.766c-0.188,0.606-0.457,1.133-0.817,1.586c-0.36,0.458-0.781,0.824-1.266,1.095
	c-0.484,0.276-1.012,0.445-1.59,0.507c-0.57,0.066-1.164,0.004-1.777-0.188c-0.61-0.183-1.133-0.464-1.575-0.843
	c-0.434-0.375-0.777-0.812-1.028-1.313c-0.245-0.496-0.39-1.035-0.433-1.617c-0.039-0.578,0.031-1.169,0.215-1.774
	c0.188-0.593,0.461-1.12,0.82-1.581c0.359-0.458,0.785-0.825,1.27-1.102c0.487-0.27,1.015-0.439,1.585-0.505
	C48.886,87.991,49.479,88.049,50.089,88.238z"/>
<polygon fill="#0044AA" points="47.246,84.358 49.881,78.765 50.761,79.179 49.703,81.424 56.351,84.557 55.832,85.659 
	49.198,82.53 48.14,84.776 "/>
<polygon fill="none" stroke="#0044AA" stroke-width="0.5814" points="47.246,84.358 49.881,78.765 50.761,79.179 49.703,81.424 
	56.351,84.557 55.832,85.659 49.198,82.53 48.14,84.776 "/>
<polygon fill="#0044AA" points="51.355,76.12 54.19,71.581 55.05,72.116 52.859,75.624 54.963,76.94 56.929,73.792 57.765,74.315 
	55.8,77.463 58.198,78.959 60.484,75.303 61.343,75.839 58.414,80.526 "/>
<polygon fill="none" stroke="#0044AA" stroke-width="0.5814" points="51.355,76.12 54.19,71.581 55.05,72.115 52.859,75.624 
	54.963,76.94 56.929,73.792 57.765,74.315 55.8,77.463 58.198,78.959 60.484,75.303 61.343,75.839 58.414,80.526 "/>
<path fill="#0044AA" d="M59.843,70.214l1.262-1.546c0.348-0.418,0.538-0.84,0.569-1.262c0.04-0.418-0.125-0.774-0.487-1.066
	c-0.356-0.289-0.727-0.375-1.114-0.262c-0.383,0.118-0.758,0.398-1.128,0.843l-1.254,1.539L59.843,70.214z M58.304,66.151
	c0.266-0.325,0.55-0.59,0.855-0.797c0.308-0.207,0.621-0.344,0.941-0.415c0.32-0.066,0.642-0.066,0.958,0.004
	c0.316,0.072,0.617,0.223,0.898,0.454c0.386,0.316,0.634,0.718,0.746,1.203c0.114,0.493,0.039,1.02-0.214,1.59l4.456,0.532
	l-0.898,1.102l-4.176-0.531l-1.262,1.547l2.766,2.258l-0.765,0.94L56.16,68.78L58.304,66.151z"/>
<path fill="none" stroke="#0044AA" stroke-width="0.5814" d="M59.843,70.214l1.262-1.546c0.348-0.418,0.538-0.84,0.569-1.262
	c0.04-0.418-0.125-0.774-0.487-1.066c-0.357-0.289-0.727-0.375-1.114-0.262c-0.383,0.118-0.758,0.398-1.128,0.843l-1.254,1.539
	L59.843,70.214z M58.304,66.151c0.266-0.325,0.55-0.59,0.855-0.797c0.308-0.207,0.621-0.344,0.941-0.415
	c0.32-0.066,0.642-0.066,0.958,0.004c0.316,0.072,0.617,0.223,0.898,0.454c0.387,0.316,0.634,0.718,0.746,1.203
	c0.114,0.493,0.039,1.02-0.214,1.59l4.456,0.532l-0.898,1.102l-4.176-0.531l-1.262,1.547l2.766,2.258l-0.765,0.94L56.16,68.78
	L58.304,66.151z"/>
<path fill="#0044AA" d="M67.519,63.206l2.237-2.062l-3.526-1.676l-0.086,0.079L67.519,63.206z M65.901,58.167l8.259,3.707
	l-0.935,0.86l-2.507-1.118l-2.816,2.594l0.945,2.559l-0.922,0.847l-3.012-8.538L65.901,58.167z"/>
<path fill="none" stroke="#0044AA" stroke-width="0.5814" d="M67.519,63.206l2.237-2.062l-3.526-1.676l-0.086,0.079L67.519,63.206z
	 M65.901,58.167l8.259,3.707l-0.935,0.86l-2.507-1.118l-2.816,2.594l0.944,2.559l-0.922,0.847l-3.012-8.538L65.901,58.167z"/>
<path fill="#0044AA" d="M74.417,56.702l1.242-0.856c0.594-0.41,0.981-0.827,1.157-1.253c0.175-0.418,0.093-0.875-0.247-1.371
	c-0.317-0.453-0.707-0.683-1.176-0.688c-0.468,0-1,0.207-1.597,0.616l-1.242,0.859L74.417,56.702z M73.374,52.246
	c0.386-0.267,0.777-0.466,1.176-0.595c0.394-0.129,0.773-0.187,1.145-0.172c0.367,0.016,0.715,0.11,1.035,0.277
	c0.32,0.176,0.598,0.434,0.84,0.773c0.242,0.356,0.391,0.711,0.441,1.067c0.052,0.363,0.02,0.719-0.09,1.062
	c-0.116,0.351-0.304,0.688-0.57,1.008c-0.27,0.328-0.601,0.624-0.991,0.894l-1.38,0.953l1.747,2.528l-1,0.691l-4.732-6.843
	L73.374,52.246z"/>
<path fill="none" stroke="#0044AA" stroke-width="0.5814" d="M74.417,56.702l1.242-0.856c0.594-0.41,0.981-0.827,1.157-1.253
	c0.175-0.418,0.094-0.875-0.247-1.371c-0.317-0.453-0.707-0.683-1.176-0.688c-0.468,0-1,0.207-1.597,0.616l-1.242,0.859
	L74.417,56.702z M73.374,52.246c0.387-0.267,0.778-0.466,1.176-0.595c0.394-0.129,0.773-0.187,1.145-0.172
	c0.367,0.016,0.715,0.11,1.035,0.277c0.32,0.176,0.598,0.434,0.84,0.773c0.242,0.356,0.391,0.711,0.441,1.067
	c0.052,0.363,0.02,0.719-0.09,1.062c-0.116,0.351-0.304,0.688-0.57,1.008c-0.27,0.328-0.601,0.624-0.991,0.894l-1.38,0.953
	l1.747,2.528l-1,0.691l-4.732-6.843L73.374,52.246z"/>
<rect x="77.088" y="51.611" transform="matrix(-0.4903 -0.8715 0.8715 -0.4903 75.5719 148.6336)" fill="#0044AA" width="8.317" height="1.216"/>
<rect x="77.088" y="51.611" transform="matrix(-0.4903 -0.8715 0.8715 -0.4903 75.5719 148.6336)" fill="none" stroke="#0044AA" stroke-width="0.5814" width="8.317" height="1.216"/>
<path fill="#0044AA" d="M86.515,50.229l2.792-1.21l-2.778-2.743l-0.105,0.043L86.515,50.229z M86.65,44.94l6.571,6.222l-1.165,0.501
	l-1.999-1.879l-3.512,1.52l0.051,2.727l-1.152,0.495l-0.027-9.051L86.65,44.94z"/>
<path fill="none" stroke="#0044AA" stroke-width="0.5814" d="M86.515,50.229l2.792-1.209l-2.777-2.743l-0.105,0.042L86.515,50.229z
	 M86.65,44.94l6.571,6.222l-1.165,0.501l-1.999-1.879l-3.512,1.52l0.051,2.727l-1.152,0.495l-0.027-9.051L86.65,44.94z"/>
<polygon fill="#0044AA" points="99.289,40.866 102.476,44.124 104.323,39.92 105.756,39.655 107.288,47.831 106.128,48.049 
	105.261,43.417 104.901,41.35 104.788,41.369 102.971,45.503 102.48,45.592 99.315,42.398 99.214,42.417 99.613,44.475 
	100.479,49.108 99.346,49.319 97.816,41.14 "/>
<polygon fill="none" stroke="#0044AA" stroke-width="0.5814" points="99.289,40.866 102.476,44.124 104.323,39.92 105.756,39.655 
	107.288,47.831 106.128,48.049 105.261,43.417 104.901,41.35 104.788,41.369 102.971,45.503 102.48,45.592 99.316,42.398 
	99.214,42.417 99.613,44.475 100.479,49.108 99.346,49.319 97.816,41.14 "/>
<path fill="#0044AA" d="M111.789,44.002l3.042-0.097l-1.571-3.574l-0.117,0.003L111.789,44.002z M113.862,39.136l3.817,8.203
	l-1.265,0.039l-1.168-2.485l-3.825,0.118l-0.957,2.554l-1.254,0.04l3.309-8.43L113.862,39.136z"/>
<path fill="none" stroke="#0044AA" stroke-width="0.5814" d="M111.789,44.002l3.042-0.097l-1.571-3.574l-0.117,0.003L111.789,44.002
	z M113.862,39.136l3.817,8.203l-1.265,0.039l-1.168-2.485l-3.825,0.118l-0.957,2.554l-1.254,0.04l3.309-8.43L113.862,39.136z"/>
<polygon fill="#0044AA" points="120.026,39.194 126.174,39.83 126.077,40.8 123.604,40.542 122.846,47.851 121.635,47.725 
	122.393,40.428 119.924,40.174 "/>
<polygon fill="none" stroke="#0044AA" stroke-width="0.5814" points="120.026,39.194 126.174,39.83 126.077,40.8 123.604,40.542 
	122.846,47.851 121.635,47.725 122.393,40.428 119.924,40.174 "/>
<polygon fill="#0044AA" points="129.167,40.35 134.385,41.53 134.163,42.519 130.131,41.604 129.581,44.026 133.202,44.846 
	132.983,45.808 129.366,44.987 128.743,47.745 132.948,48.699 132.723,49.687 127.331,48.464 "/>
<polygon fill="none" stroke="#0044AA" stroke-width="0.5814" points="129.167,40.35 134.385,41.53 134.163,42.519 130.131,41.604 
	129.581,44.026 133.202,44.846 132.983,45.808 129.366,44.987 128.743,47.745 132.948,48.699 132.723,49.687 127.331,48.464 "/>
<path fill="#0044AA" d="M138.881,42.885l-1.688,4.547c-0.309,0.836-0.35,1.531-0.125,2.086c0.223,0.555,0.676,0.957,1.363,1.211
	c0.678,0.25,1.285,0.238,1.82-0.035c0.531-0.278,0.949-0.829,1.262-1.661l1.688-4.546l1.141,0.421l-1.656,4.465
	c-0.225,0.598-0.496,1.083-0.809,1.465c-0.32,0.375-0.676,0.661-1.064,0.848c-0.396,0.183-0.822,0.269-1.279,0.261
	c-0.461-0.012-0.941-0.109-1.445-0.292c-0.508-0.191-0.938-0.434-1.293-0.724c-0.355-0.297-0.621-0.636-0.797-1.031
	c-0.176-0.394-0.262-0.839-0.254-1.332c0.004-0.492,0.117-1.039,0.34-1.64l1.656-4.465L138.881,42.885z"/>
<path fill="none" stroke="#0044AA" stroke-width="0.5814" d="M138.881,42.885l-1.688,4.547c-0.309,0.836-0.35,1.531-0.125,2.086
	c0.223,0.555,0.676,0.957,1.363,1.211c0.678,0.25,1.285,0.238,1.82-0.035c0.531-0.278,0.949-0.829,1.262-1.661l1.688-4.546
	l1.141,0.421l-1.656,4.465c-0.225,0.598-0.496,1.083-0.809,1.465c-0.32,0.375-0.676,0.661-1.064,0.848
	c-0.396,0.183-0.822,0.269-1.279,0.261c-0.461-0.011-0.941-0.108-1.445-0.292c-0.508-0.191-0.938-0.434-1.293-0.724
	c-0.355-0.297-0.621-0.636-0.797-1.031c-0.176-0.394-0.262-0.839-0.254-1.332c0.004-0.492,0.117-1.039,0.34-1.64l1.656-4.465
	L138.881,42.885z"/>
<path fill="#0044AA" d="M151.264,50.097c-0.195-0.379-0.418-0.7-0.668-0.957c-0.25-0.254-0.57-0.481-0.951-0.688
	c-0.291-0.149-0.541-0.243-0.756-0.278c-0.215-0.026-0.4-0.023-0.559,0.016c-0.16,0.043-0.293,0.117-0.398,0.223
	c-0.113,0.109-0.199,0.227-0.26,0.343c-0.15,0.274-0.182,0.547-0.1,0.821c0.078,0.281,0.305,0.574,0.688,0.878l0.934,0.774
	c0.547,0.461,0.906,0.969,1.078,1.531c0.168,0.563,0.086,1.157-0.246,1.782c-0.172,0.316-0.395,0.57-0.664,0.765
	c-0.271,0.191-0.586,0.321-0.938,0.383c-0.355,0.062-0.738,0.055-1.152-0.024c-0.418-0.081-0.852-0.246-1.301-0.483
	c-0.273-0.148-0.516-0.289-0.723-0.43c-0.211-0.141-0.402-0.292-0.578-0.453c-0.176-0.161-0.34-0.336-0.496-0.523
	c-0.156-0.191-0.312-0.398-0.461-0.637l0.883-0.792c0.281,0.492,0.562,0.875,0.854,1.152c0.279,0.277,0.615,0.515,1.006,0.722
	c0.621,0.329,1.152,0.461,1.594,0.399c0.434-0.07,0.746-0.277,0.93-0.622c0.207-0.394,0.258-0.742,0.162-1.05
	c-0.104-0.309-0.373-0.637-0.811-0.992l-1.039-0.828c-0.488-0.391-0.785-0.848-0.887-1.375c-0.105-0.52-0.031-1.016,0.219-1.489
	c0.156-0.288,0.352-0.531,0.586-0.718c0.234-0.183,0.5-0.305,0.801-0.371c0.297-0.059,0.623-0.059,0.977,0
	c0.352,0.067,0.727,0.199,1.121,0.406c0.48,0.258,0.885,0.532,1.203,0.817c0.32,0.286,0.602,0.648,0.852,1.094L151.264,50.097z"/>
<path fill="none" stroke="#0044AA" stroke-width="0.5814" d="M151.264,50.097c-0.195-0.379-0.418-0.7-0.668-0.957
	c-0.25-0.254-0.57-0.481-0.951-0.688c-0.291-0.149-0.541-0.243-0.756-0.278c-0.215-0.026-0.4-0.023-0.559,0.016
	c-0.16,0.043-0.293,0.117-0.398,0.223c-0.113,0.109-0.199,0.227-0.26,0.343c-0.15,0.274-0.182,0.547-0.1,0.821
	c0.078,0.281,0.305,0.574,0.688,0.878l0.934,0.774c0.547,0.461,0.906,0.969,1.078,1.53c0.168,0.563,0.086,1.157-0.246,1.782
	c-0.172,0.316-0.395,0.57-0.664,0.765c-0.271,0.191-0.586,0.321-0.938,0.383c-0.355,0.062-0.738,0.055-1.152-0.024
	c-0.418-0.081-0.852-0.246-1.301-0.483c-0.273-0.148-0.516-0.289-0.723-0.43c-0.211-0.141-0.402-0.292-0.578-0.453
	c-0.176-0.161-0.34-0.336-0.496-0.523c-0.156-0.191-0.312-0.398-0.461-0.637l0.883-0.792c0.281,0.492,0.562,0.875,0.854,1.152
	c0.279,0.277,0.615,0.515,1.006,0.722c0.621,0.329,1.152,0.461,1.594,0.399c0.434-0.071,0.746-0.277,0.93-0.622
	c0.207-0.394,0.258-0.742,0.162-1.05c-0.104-0.308-0.373-0.636-0.811-0.992l-1.039-0.828c-0.488-0.391-0.785-0.848-0.887-1.375
	c-0.105-0.52-0.031-1.016,0.219-1.489c0.156-0.288,0.352-0.531,0.586-0.718c0.234-0.183,0.5-0.305,0.801-0.371
	c0.297-0.059,0.623-0.059,0.977,0c0.352,0.067,0.727,0.199,1.121,0.406c0.48,0.258,0.885,0.532,1.203,0.817
	c0.32,0.286,0.602,0.648,0.852,1.094L151.264,50.097z"/>
<polygon fill="#0044AA" points="160.926,54.709 160.42,55.417 152.342,57.581 156.776,60.729 156.194,61.554 150.514,57.522 
	150.995,56.842 159.143,54.651 155.042,51.742 155.612,50.937 "/>
<polygon fill="none" stroke="#0044AA" stroke-width="0.5814" points="160.926,54.709 160.42,55.417 152.342,57.581 156.776,60.729 
	156.194,61.554 150.514,57.522 150.995,56.842 159.143,54.651 155.042,51.742 155.612,50.937 "/>
<path fill="#0044AA" d="M162.702,66.077l1.164,1.262c0.332,0.36,0.684,0.66,1.059,0.899c0.367,0.238,0.75,0.387,1.146,0.445
	c0.385,0.054,0.783,0.011,1.193-0.122c0.406-0.141,0.816-0.398,1.234-0.781c0.418-0.391,0.727-0.781,0.918-1.171
	c0.193-0.392,0.281-0.782,0.277-1.172c-0.008-0.39-0.105-0.773-0.293-1.157c-0.195-0.379-0.457-0.753-0.789-1.121l-1.266-1.371
	L162.702,66.077z M169.338,62.491c0.473,0.515,0.828,1.043,1.066,1.582c0.238,0.542,0.359,1.074,0.363,1.605
	c0.006,0.531-0.113,1.05-0.355,1.559c-0.242,0.504-0.609,0.984-1.094,1.437c-0.504,0.461-1.023,0.778-1.559,0.954
	c-0.543,0.167-1.078,0.215-1.613,0.141c-0.539-0.082-1.074-0.278-1.598-0.59c-0.531-0.317-1.027-0.727-1.494-1.231l-1.92-2.077
	l6.109-5.645L169.338,62.491z"/>
<path fill="none" stroke="#0044AA" stroke-width="0.5814" d="M162.702,66.077l1.164,1.262c0.332,0.36,0.684,0.66,1.059,0.899
	c0.367,0.238,0.75,0.387,1.146,0.445c0.385,0.054,0.783,0.011,1.193-0.122c0.406-0.141,0.816-0.398,1.234-0.781
	c0.418-0.391,0.727-0.781,0.918-1.171c0.193-0.392,0.281-0.782,0.277-1.172c-0.008-0.39-0.105-0.773-0.293-1.157
	c-0.195-0.379-0.457-0.753-0.789-1.121l-1.266-1.371L162.702,66.077z M169.338,62.491c0.473,0.515,0.828,1.043,1.066,1.582
	c0.238,0.542,0.359,1.074,0.363,1.605c0.006,0.531-0.113,1.05-0.355,1.559c-0.242,0.504-0.609,0.984-1.094,1.437
	c-0.504,0.461-1.023,0.778-1.559,0.954c-0.543,0.167-1.078,0.215-1.613,0.141c-0.539-0.082-1.074-0.278-1.598-0.59
	c-0.531-0.317-1.027-0.727-1.494-1.231l-1.92-2.077l6.109-5.645L169.338,62.491z"/>
<polygon fill="#0044AA" points="174.385,68.397 177.463,72.776 176.635,73.358 174.256,69.975 172.225,71.405 174.362,74.44 
	173.553,75.006 171.42,71.972 169.104,73.596 171.584,77.127 170.756,77.706 167.577,73.182 "/>
<polygon fill="none" stroke="#0044AA" stroke-width="0.5814" points="174.385,68.397 177.463,72.776 176.635,73.358 174.256,69.975 
	172.225,71.405 174.362,74.44 173.553,75.006 171.42,71.972 169.104,73.596 171.584,77.127 170.756,77.706 167.577,73.182 "/>
<path fill="#0044AA" d="M176.524,78.53l0.932,1.766c0.254,0.48,0.566,0.817,0.941,1.011c0.373,0.192,0.762,0.185,1.168-0.027
	c0.406-0.219,0.633-0.527,0.68-0.925c0.043-0.399-0.07-0.856-0.34-1.368l-0.926-1.753L176.524,78.53z M180.866,78.697
	c0.195,0.372,0.328,0.735,0.398,1.099c0.07,0.362,0.074,0.707,0.016,1.027c-0.066,0.32-0.191,0.613-0.379,0.878
	c-0.186,0.266-0.445,0.48-0.766,0.653c-0.445,0.227-0.91,0.3-1.402,0.214s-0.953-0.359-1.379-0.816l-2.227,3.894l-0.664-1.257
	l2.121-3.637l-0.934-1.766l-3.154,1.668l-0.572-1.078l7.359-3.878L180.866,78.697z"/>
<path fill="none" stroke="#0044AA" stroke-width="0.5814" d="M176.524,78.53l0.932,1.766c0.254,0.48,0.566,0.817,0.941,1.011
	c0.373,0.192,0.762,0.184,1.168-0.027c0.406-0.219,0.633-0.527,0.68-0.925c0.043-0.399-0.07-0.856-0.34-1.368l-0.926-1.753
	L176.524,78.53z M180.866,78.697c0.195,0.372,0.328,0.735,0.398,1.099c0.07,0.362,0.074,0.707,0.016,1.027
	c-0.066,0.32-0.191,0.613-0.379,0.878c-0.186,0.266-0.445,0.48-0.766,0.653c-0.445,0.227-0.91,0.3-1.402,0.214
	s-0.951-0.359-1.379-0.816l-2.227,3.894l-0.664-1.257l2.121-3.637l-0.932-1.766l-3.156,1.668l-0.572-1.078l7.359-3.878
	L180.866,78.697z"/>
<polygon fill="#0044AA" points="178.655,91.959 177.7,92.319 175.881,87.519 183.668,84.577 184.096,85.713 177.272,88.296 "/>
<polygon fill="none" stroke="#0044AA" stroke-width="0.5814" points="178.655,91.959 177.7,92.319 175.881,87.519 183.668,84.577 
	184.096,85.713 177.272,88.296 "/>
<polygon fill="#0044AA" points="186.395,92.315 187.704,97.502 186.721,97.749 185.709,93.741 183.303,94.347 184.209,97.948 
	183.256,98.19 182.348,94.589 179.604,95.279 180.659,99.463 179.678,99.71 178.329,94.35 "/>
<polygon fill="none" stroke="#0044AA" stroke-width="0.5814" points="186.395,92.315 187.704,97.502 186.721,97.748 185.709,93.741 
	183.303,94.347 184.209,97.948 183.256,98.19 182.348,94.589 179.604,95.279 180.659,99.463 179.678,99.71 178.329,94.35 "/>
<path fill="#0044AA" d="M187.495,107.678c0.242-0.445,0.41-0.867,0.506-1.266c0.084-0.402,0.104-0.832,0.053-1.289
	c-0.062-0.492-0.199-0.931-0.41-1.312c-0.215-0.383-0.484-0.7-0.811-0.946c-0.33-0.253-0.705-0.429-1.121-0.531
	c-0.428-0.106-0.877-0.129-1.346-0.071c-0.539,0.062-0.996,0.204-1.379,0.422c-0.383,0.218-0.695,0.488-0.938,0.816
	c-0.242,0.32-0.406,0.688-0.492,1.102c-0.09,0.406-0.109,0.835-0.051,1.289c0.023,0.25,0.066,0.488,0.121,0.706
	c0.051,0.22,0.121,0.426,0.211,0.621c0.086,0.196,0.191,0.388,0.32,0.579c0.121,0.192,0.273,0.391,0.457,0.594l-1,0.48
	c-0.367-0.422-0.641-0.868-0.816-1.332c-0.176-0.466-0.301-1.016-0.375-1.649c-0.07-0.555-0.047-1.098,0.066-1.637
	c0.109-0.542,0.316-1.04,0.621-1.48c0.307-0.45,0.711-0.825,1.227-1.129c0.508-0.309,1.133-0.504,1.875-0.59
	c0.633-0.074,1.23-0.027,1.789,0.148c0.561,0.172,1.047,0.442,1.469,0.805c0.418,0.36,0.766,0.797,1.043,1.316
	c0.27,0.516,0.441,1.079,0.516,1.681c0.07,0.616,0.068,1.159-0.02,1.632c-0.09,0.469-0.27,0.937-0.531,1.41L187.495,107.678z"/>
<path fill="none" stroke="#0044AA" stroke-width="0.5814" d="M187.495,107.678c0.242-0.445,0.41-0.867,0.506-1.266
	c0.084-0.402,0.104-0.832,0.053-1.289c-0.062-0.492-0.199-0.931-0.41-1.312c-0.215-0.383-0.484-0.699-0.811-0.946
	c-0.33-0.253-0.705-0.429-1.121-0.531c-0.428-0.106-0.877-0.129-1.346-0.071c-0.539,0.062-0.996,0.204-1.379,0.422
	c-0.383,0.218-0.695,0.488-0.938,0.816c-0.242,0.32-0.406,0.688-0.492,1.102c-0.09,0.406-0.109,0.835-0.051,1.289
	c0.023,0.25,0.066,0.488,0.121,0.706c0.051,0.22,0.121,0.426,0.211,0.621c0.086,0.196,0.191,0.388,0.32,0.579
	c0.121,0.191,0.273,0.391,0.457,0.594l-1,0.48c-0.367-0.422-0.641-0.868-0.816-1.332c-0.176-0.466-0.301-1.016-0.375-1.649
	c-0.07-0.555-0.047-1.098,0.066-1.637c0.109-0.542,0.316-1.04,0.621-1.48c0.307-0.45,0.711-0.825,1.227-1.129
	c0.508-0.309,1.133-0.504,1.875-0.59c0.633-0.074,1.23-0.027,1.789,0.148c0.561,0.172,1.047,0.442,1.469,0.805
	c0.418,0.36,0.766,0.797,1.043,1.316c0.27,0.516,0.441,1.079,0.516,1.681c0.07,0.616,0.068,1.159-0.02,1.632
	c-0.09,0.469-0.27,0.937-0.531,1.41L187.495,107.678z"/>
<polygon fill="#0044AA" points="189.327,112.448 184.959,112.366 189.249,116.467 189.221,117.99 185.889,114.702 180.897,118.178 
	180.924,116.733 185.073,113.87 183.682,112.342 181.006,112.292 181.03,111.077 189.35,111.233 "/>
<polygon fill="none" stroke="#0044AA" stroke-width="0.5814" points="189.327,112.448 184.959,112.366 189.249,116.467 
	189.221,117.99 185.889,114.702 180.897,118.178 180.924,116.733 185.073,113.87 183.682,112.342 181.006,112.292 181.03,111.077 
	189.35,111.233 "/>
<rect x="180.52" y="120.466" transform="matrix(0.9934 0.1151 -0.1151 0.9934 15.1586 -20.4466)" fill="#0044AA" width="8.317" height="1.214"/>
<rect x="180.52" y="120.466" transform="matrix(0.9934 0.1151 -0.1151 0.9934 15.1586 -20.4466)" fill="none" stroke="#0044AA" stroke-width="0.5814" width="8.317" height="1.214"/>
<g>
	<path fill="#0044AA" d="M64.955,181.915c0.495-0.791,1-1.62,1.516-2.488c0.516-0.867,1.03-1.746,1.541-2.636
		s0.991-1.746,1.441-2.57l-0.017-0.033c-0.856,0-1.724,0.005-2.603,0.016c-0.879,0.011-1.73,0.055-2.554,0.132
		c0.022-0.121,0.041-0.236,0.058-0.346s0.025-0.225,0.025-0.346c0-0.121-0.008-0.236-0.025-0.346s-0.036-0.225-0.058-0.346
		c0.505,0,0.953,0.006,1.343,0.017c0.39,0.011,0.758,0.019,1.104,0.025c0.346,0.005,0.687,0.014,1.021,0.024
		c0.335,0.011,0.694,0.017,1.079,0.017c0.34,0,0.656-0.002,0.947-0.008c0.291-0.005,0.59-0.011,0.898-0.017
		c0.307-0.005,0.637-0.014,0.988-0.024c0.352-0.011,0.758-0.022,1.219-0.033v0.296c-1.033,1.647-2.021,3.278-2.965,4.893
		c-0.945,1.614-1.884,3.251-2.817,4.909v0.033c0.857,0,1.582-0.002,2.175-0.008c0.593-0.005,1.109-0.014,1.548-0.024
		s0.815-0.025,1.128-0.042c0.313-0.016,0.618-0.035,0.915-0.058c-0.011,0.121-0.028,0.236-0.049,0.346
		c-0.022,0.11-0.033,0.225-0.033,0.346c0,0.121,0.011,0.234,0.033,0.338c0.021,0.104,0.038,0.201,0.049,0.288
		c-0.692-0.022-1.359-0.033-2.001-0.033c-0.643,0-1.349,0-2.117,0c-1.329,0-2.438,0.002-3.328,0.008
		c-0.89,0.005-1.494,0.014-1.812,0.024v-0.23C64.011,183.414,64.461,182.706,64.955,181.915z"/>
	<path fill="#0044AA" d="M80.029,176.816c0.22-0.401,0.434-0.821,0.643-1.26c0.208-0.439,0.412-0.881,0.609-1.326
		s0.39-0.87,0.577-1.277c0.121,0.022,0.244,0.042,0.371,0.058c0.126,0.017,0.255,0.025,0.387,0.025s0.261-0.008,0.387-0.025
		c0.126-0.016,0.261-0.036,0.404-0.058c-0.187,0.308-0.42,0.711-0.7,1.211c-0.28,0.5-0.58,1.041-0.898,1.623
		c-0.319,0.583-0.64,1.178-0.964,1.788c-0.324,0.609-0.618,1.172-0.881,1.688c0,0.264-0.005,0.53-0.016,0.799
		c-0.011,0.27-0.017,0.541-0.017,0.815c0,0.56,0.008,1.115,0.024,1.664c0.017,0.549,0.063,1.126,0.14,1.729
		c-0.23-0.022-0.464-0.033-0.7-0.033s-0.469,0-0.7,0c-0.23,0-0.464,0-0.7,0c-0.236,0-0.47,0.011-0.7,0.033
		c0.021-0.505,0.06-1.021,0.115-1.548c0.055-0.527,0.082-1.054,0.082-1.582c0-0.252-0.002-0.508-0.008-0.766
		c-0.006-0.258-0.014-0.513-0.025-0.766c-0.274-0.549-0.59-1.161-0.947-1.836c-0.357-0.676-0.703-1.332-1.038-1.969
		c-0.335-0.637-0.643-1.213-0.923-1.73c-0.28-0.516-0.486-0.889-0.618-1.12c0.252,0.022,0.5,0.042,0.741,0.058
		c0.242,0.017,0.489,0.025,0.741,0.025c0.253,0,0.497-0.008,0.733-0.025c0.236-0.016,0.48-0.036,0.733-0.058
		c0.187,0.407,0.398,0.857,0.634,1.351s0.47,0.978,0.7,1.45s0.445,0.9,0.643,1.285c0.198,0.385,0.356,0.67,0.478,0.857h0.033
		C79.589,177.577,79.809,177.217,80.029,176.816z"/>
	<path fill="#0044AA" d="M84.394,185.852c0.154-0.099,0.28-0.214,0.379-0.346s0.173-0.296,0.222-0.494
		c0.05-0.198,0.085-0.445,0.107-0.742c0.043-0.681,0.077-1.375,0.099-2.083c0.022-0.708,0.033-1.519,0.033-2.43v-2.24
		c0-0.912-0.011-1.722-0.033-2.43c-0.022-0.708-0.055-1.419-0.099-2.133c0.187,0.022,0.39,0.042,0.609,0.058
		c0.22,0.017,0.467,0.025,0.741,0.025s0.521-0.008,0.742-0.025c0.219-0.016,0.422-0.036,0.609-0.058
		c-0.044,0.714-0.077,1.425-0.099,2.133c-0.022,0.708-0.033,1.519-0.033,2.43v2.24c0,0.461,0.005,0.945,0.017,1.45
		c0.011,0.505,0.016,1.021,0.016,1.549c0,1.285-0.305,2.251-0.914,2.899c-0.609,0.647-1.519,1.071-2.727,1.268l-0.247-0.774
		C84.048,186.05,84.24,185.951,84.394,185.852z"/>
	<path fill="#0044AA" d="M95.378,175.086c-0.025-0.708-0.062-1.419-0.111-2.133c0.187,0.022,0.39,0.042,0.609,0.058
		c0.22,0.017,0.467,0.025,0.741,0.025c0.472,0,0.966-0.014,1.483-0.041c0.516-0.027,1.01-0.042,1.482-0.042
		c0.494,0,0.944,0.049,1.351,0.148c0.406,0.099,0.758,0.25,1.054,0.453s0.524,0.467,0.684,0.791
		c0.159,0.324,0.239,0.711,0.239,1.162s-0.093,0.837-0.281,1.161c-0.188,0.324-0.417,0.593-0.687,0.807
		c-0.27,0.214-0.562,0.382-0.876,0.502c-0.314,0.121-0.598,0.204-0.852,0.247v0.033c0.252,0.011,0.548,0.069,0.888,0.173
		c0.34,0.104,0.663,0.267,0.97,0.486c0.307,0.22,0.567,0.503,0.78,0.849c0.214,0.346,0.321,0.766,0.321,1.26
		c0,0.593-0.107,1.098-0.321,1.516c-0.213,0.417-0.499,0.758-0.854,1.021c-0.356,0.264-0.765,0.447-1.225,0.552
		c-0.46,0.104-0.937,0.156-1.43,0.156c-0.439,0-0.847-0.005-1.225-0.016c-0.378-0.011-0.775-0.017-1.191-0.017
		c-0.296,0-0.601,0-0.913,0c-0.312,0-0.562,0.011-0.748,0.033c0.049-0.681,0.086-1.375,0.111-2.083
		c0.024-0.708,0.037-1.519,0.037-2.43v-2.24C95.415,176.605,95.402,175.795,95.378,175.086z M100.382,175.07
		c-0.061-0.236-0.163-0.439-0.305-0.61c-0.143-0.17-0.324-0.307-0.543-0.412s-0.494-0.157-0.824-0.157
		c-0.242,0-0.409,0.003-0.502,0.008c-0.093,0.006-0.195,0.02-0.305,0.041c-0.022,0.407-0.039,0.818-0.049,1.236
		c-0.011,0.417-0.017,0.769-0.017,1.054c0,0.296,0.002,0.58,0.008,0.849c0.005,0.269,0.008,0.546,0.008,0.832h0.741
		c0.23,0,0.458-0.043,0.684-0.131s0.426-0.217,0.602-0.387c0.175-0.17,0.318-0.387,0.428-0.651c0.109-0.264,0.165-0.571,0.165-0.922
		C100.472,175.556,100.442,175.306,100.382,175.07z M100.069,179.419c-0.346-0.379-0.849-0.568-1.507-0.568
		c-0.154,0-0.286,0.002-0.396,0.008c-0.11,0.006-0.214,0.008-0.313,0.008c0,0.231-0.003,0.47-0.008,0.717
		c-0.006,0.247-0.008,0.541-0.008,0.881c0,0.264,0.002,0.533,0.008,0.807c0.005,0.275,0.008,0.543,0.008,0.807
		s0.002,0.505,0.008,0.725c0.005,0.22,0.008,0.401,0.008,0.543c0.154,0.011,0.297,0.02,0.429,0.025s0.291,0.008,0.478,0.008
		c0.242,0,0.472-0.05,0.692-0.148s0.412-0.244,0.577-0.437c0.165-0.192,0.296-0.426,0.396-0.7c0.099-0.274,0.148-0.593,0.148-0.956
		C100.587,180.372,100.415,179.798,100.069,179.419z"/>
	<path fill="#0044AA" d="M105.353,175.086c-0.019-0.708-0.048-1.419-0.086-2.133c0.494,0.011,0.983,0.028,1.466,0.049
		c0.483,0.022,0.972,0.033,1.466,0.033c0.812,0,1.535-0.008,2.166-0.025c0.631-0.016,1.057-0.036,1.277-0.058
		c-0.044,0.176-0.066,0.407-0.066,0.692c0,0.176,0.005,0.313,0.017,0.412c0.011,0.099,0.027,0.208,0.049,0.329
		c-0.319-0.021-0.667-0.043-1.046-0.066c-0.379-0.021-0.747-0.043-1.104-0.066c-0.357-0.021-0.678-0.038-0.964-0.049
		c-0.286-0.011-0.489-0.016-0.609-0.016c-0.044,0.604-0.069,1.202-0.074,1.795s-0.008,1.192-0.008,1.796
		c0.714-0.011,1.359-0.027,1.936-0.05c0.576-0.021,1.178-0.049,1.804-0.082c-0.033,0.187-0.055,0.329-0.066,0.428
		c-0.011,0.099-0.017,0.203-0.017,0.313c0,0.088,0.008,0.179,0.025,0.272s0.036,0.228,0.058,0.403
		c-1.252-0.099-2.499-0.148-3.74-0.148c0,0.352-0.002,0.703-0.008,1.055c-0.005,0.352-0.008,0.703-0.008,1.054
		c0,0.714,0.016,1.4,0.049,2.059c0.626,0,1.252-0.016,1.878-0.049c0.626-0.033,1.257-0.088,1.895-0.165
		c-0.022,0.121-0.039,0.23-0.049,0.329c-0.011,0.099-0.017,0.236-0.017,0.412s0.005,0.313,0.017,0.412
		c0.011,0.099,0.027,0.182,0.049,0.247c-0.296-0.011-0.662-0.019-1.096-0.024c-0.434-0.006-1.029-0.008-1.787-0.008
		c-0.67,0-1.214,0-1.631,0c-0.407,0-0.733,0-0.98,0s-0.434,0.002-0.56,0.008c-0.126,0.005-0.233,0.014-0.321,0.024
		c0.039-0.681,0.067-1.375,0.086-2.083c0.019-0.708,0.029-1.519,0.029-2.43v-2.24C105.381,176.605,105.372,175.795,105.353,175.086z
		"/>
	<path fill="#0044AA" d="M113.948,181.915c0.495-0.791,1-1.62,1.516-2.488c0.516-0.867,1.03-1.746,1.541-2.636
		s0.991-1.746,1.441-2.57l-0.017-0.033c-0.856,0-1.724,0.005-2.603,0.016c-0.879,0.011-1.73,0.055-2.554,0.132
		c0.022-0.121,0.041-0.236,0.058-0.346s0.025-0.225,0.025-0.346c0-0.121-0.008-0.236-0.025-0.346s-0.036-0.225-0.058-0.346
		c0.505,0,0.953,0.006,1.343,0.017c0.39,0.011,0.758,0.019,1.104,0.025c0.346,0.005,0.687,0.014,1.021,0.024
		c0.335,0.011,0.694,0.017,1.079,0.017c0.34,0,0.656-0.002,0.947-0.008c0.291-0.005,0.591-0.011,0.898-0.017
		c0.307-0.005,0.637-0.014,0.988-0.024c0.352-0.011,0.758-0.022,1.219-0.033v0.296c-1.032,1.647-2.021,3.278-2.965,4.893
		c-0.945,1.614-1.884,3.251-2.817,4.909v0.033c0.857,0,1.582-0.002,2.175-0.008c0.593-0.005,1.108-0.014,1.548-0.024
		s0.815-0.025,1.129-0.042c0.312-0.016,0.618-0.035,0.914-0.058c-0.011,0.121-0.027,0.236-0.049,0.346
		c-0.022,0.11-0.033,0.225-0.033,0.346c0,0.121,0.011,0.234,0.033,0.338c0.021,0.104,0.038,0.201,0.049,0.288
		c-0.691-0.022-1.359-0.033-2.001-0.033c-0.643,0-1.349,0-2.117,0c-1.329,0-2.438,0.002-3.328,0.008
		c-0.89,0.005-1.494,0.014-1.812,0.024v-0.23C113.003,183.414,113.454,182.706,113.948,181.915z"/>
	<path fill="#0044AA" d="M128.655,175.086c-0.024-0.708-0.062-1.419-0.111-2.133c0.188,0.022,0.39,0.042,0.61,0.058
		c0.219,0.017,0.466,0.025,0.741,0.025c0.472,0,0.966-0.014,1.482-0.041c0.516-0.027,1.01-0.042,1.482-0.042
		c0.494,0,0.944,0.049,1.351,0.148c0.406,0.099,0.758,0.25,1.055,0.453s0.524,0.467,0.684,0.791
		c0.159,0.324,0.239,0.711,0.239,1.162s-0.094,0.837-0.281,1.161c-0.188,0.324-0.416,0.593-0.687,0.807
		c-0.271,0.214-0.562,0.382-0.876,0.502c-0.314,0.121-0.599,0.204-0.852,0.247v0.033c0.252,0.011,0.548,0.069,0.888,0.173
		c0.34,0.104,0.663,0.267,0.97,0.486c0.307,0.22,0.566,0.503,0.78,0.849c0.214,0.346,0.321,0.766,0.321,1.26
		c0,0.593-0.107,1.098-0.321,1.516s-0.498,0.758-0.854,1.021s-0.765,0.447-1.225,0.552c-0.461,0.104-0.938,0.156-1.431,0.156
		c-0.438,0-0.847-0.005-1.225-0.016c-0.378-0.011-0.775-0.017-1.191-0.017c-0.296,0-0.601,0-0.913,0s-0.562,0.011-0.748,0.033
		c0.05-0.681,0.087-1.375,0.111-2.083c0.025-0.708,0.037-1.519,0.037-2.43v-2.24C128.692,176.605,128.68,175.795,128.655,175.086z
		 M133.659,175.07c-0.061-0.236-0.162-0.439-0.305-0.61c-0.143-0.17-0.324-0.307-0.543-0.412c-0.221-0.104-0.495-0.157-0.824-0.157
		c-0.241,0-0.409,0.003-0.502,0.008c-0.094,0.006-0.195,0.02-0.306,0.041c-0.021,0.407-0.038,0.818-0.049,1.236
		s-0.017,0.769-0.017,1.054c0,0.296,0.003,0.58,0.008,0.849c0.006,0.269,0.009,0.546,0.009,0.832h0.741
		c0.23,0,0.458-0.043,0.684-0.131c0.225-0.088,0.426-0.217,0.602-0.387s0.318-0.387,0.428-0.651c0.11-0.264,0.165-0.571,0.165-0.922
		C133.75,175.556,133.719,175.306,133.659,175.07z M133.346,179.419c-0.346-0.379-0.849-0.568-1.508-0.568
		c-0.153,0-0.285,0.002-0.396,0.008c-0.109,0.006-0.214,0.008-0.312,0.008c0,0.231-0.003,0.47-0.009,0.717
		c-0.005,0.247-0.008,0.541-0.008,0.881c0,0.264,0.003,0.533,0.008,0.807c0.006,0.275,0.009,0.543,0.009,0.807
		s0.003,0.505,0.008,0.725c0.006,0.22,0.009,0.401,0.009,0.543c0.153,0.011,0.296,0.02,0.428,0.025s0.291,0.008,0.479,0.008
		c0.241,0,0.472-0.05,0.691-0.148s0.412-0.244,0.576-0.437c0.165-0.192,0.297-0.426,0.396-0.7c0.1-0.274,0.148-0.593,0.148-0.956
		C133.865,180.372,133.692,179.798,133.346,179.419z"/>
	<path fill="#0044AA" d="M138.386,176.347c0.303-0.714,0.728-1.34,1.277-1.878c0.549-0.538,1.213-0.961,1.993-1.269
		c0.779-0.307,1.647-0.461,2.603-0.461c0.879,0,1.697,0.121,2.455,0.362s1.416,0.604,1.977,1.087s1.002,1.095,1.326,1.836
		c0.324,0.742,0.486,1.606,0.486,2.595c0,0.824-0.157,1.593-0.47,2.307c-0.313,0.714-0.747,1.337-1.302,1.87
		s-1.216,0.947-1.985,1.244c-0.769,0.296-1.614,0.445-2.536,0.445c-0.868,0-1.684-0.107-2.446-0.321
		c-0.764-0.214-1.429-0.56-1.994-1.038c-0.565-0.478-1.013-1.087-1.343-1.829c-0.329-0.742-0.494-1.628-0.494-2.661
		C137.933,177.824,138.084,177.061,138.386,176.347z M147.538,176.355c-0.176-0.565-0.42-1.046-0.733-1.441
		c-0.312-0.396-0.691-0.7-1.136-0.914c-0.445-0.214-0.932-0.321-1.458-0.321c-0.561,0-1.062,0.134-1.508,0.403
		c-0.444,0.27-0.821,0.634-1.128,1.096c-0.308,0.461-0.542,1.002-0.7,1.623c-0.16,0.621-0.239,1.282-0.239,1.985
		c0,0.878,0.093,1.62,0.28,2.224c0.187,0.604,0.438,1.09,0.758,1.458c0.318,0.368,0.686,0.634,1.104,0.799
		c0.417,0.165,0.856,0.248,1.318,0.248c0.494,0,0.966-0.104,1.416-0.313c0.45-0.208,0.843-0.527,1.178-0.955
		c0.335-0.429,0.604-0.972,0.808-1.631c0.203-0.659,0.305-1.439,0.305-2.339C147.801,177.561,147.713,176.921,147.538,176.355z
		 M144.333,170.548c0.356-0.417,0.64-0.725,0.849-0.922c0.208-0.198,0.368-0.318,0.478-0.362s0.225-0.066,0.346-0.066
		c0.264,0,0.459,0.077,0.585,0.23s0.189,0.324,0.189,0.511c0,0.11-0.021,0.214-0.065,0.313s-0.165,0.228-0.362,0.387
		c-0.198,0.159-0.497,0.368-0.898,0.626c-0.4,0.258-0.958,0.601-1.672,1.03h-0.906C143.491,171.547,143.977,170.965,144.333,170.548
		z"/>
	<path fill="#0044AA" d="M152.595,175.086c-0.022-0.708-0.056-1.419-0.1-2.133c0.188,0.022,0.39,0.042,0.61,0.058
		c0.219,0.017,0.466,0.025,0.741,0.025c0.274,0,0.521-0.008,0.741-0.025c0.22-0.016,0.423-0.036,0.609-0.058
		c-0.044,0.714-0.077,1.425-0.099,2.133c-0.022,0.708-0.033,1.519-0.033,2.43v2.24c0,0.626,0.003,1.23,0.008,1.812
		c0.006,0.583,0.014,1.087,0.025,1.516c0.626,0,1.252-0.016,1.878-0.049c0.626-0.033,1.257-0.088,1.895-0.165
		c-0.022,0.121-0.039,0.23-0.05,0.329c-0.011,0.099-0.017,0.236-0.017,0.412s0.006,0.313,0.017,0.412
		c0.011,0.099,0.027,0.182,0.05,0.247c-0.297-0.011-0.662-0.019-1.096-0.024c-0.434-0.006-1.029-0.008-1.787-0.008
		c-0.67,0-1.214,0-1.631,0c-0.407,0-0.733,0-0.98,0s-0.434,0.002-0.561,0.008c-0.126,0.005-0.233,0.014-0.321,0.024
		c0.044-0.681,0.077-1.375,0.1-2.083c0.021-0.708,0.032-1.519,0.032-2.43v-2.24C152.627,176.605,152.617,175.795,152.595,175.086z"
		/>
	<path fill="#0044AA" d="M164.003,184.263c-0.61-0.148-1.14-0.396-1.59-0.742c-0.451-0.346-0.805-0.791-1.062-1.334
		c-0.259-0.544-0.388-1.206-0.388-1.985c0-0.439,0.003-0.832,0.009-1.178c0.005-0.346,0.008-0.667,0.008-0.964
		s0.003-0.582,0.009-0.856c0.005-0.274,0.008-0.56,0.008-0.857c0-0.89-0.006-1.608-0.017-2.158s-0.027-0.961-0.05-1.236
		c0.22,0.022,0.445,0.042,0.676,0.058c0.23,0.017,0.456,0.025,0.676,0.025s0.444-0.008,0.675-0.025
		c0.231-0.016,0.456-0.036,0.676-0.058c-0.11,1.065-0.176,2.057-0.197,2.974c-0.022,0.917-0.033,1.848-0.033,2.792
		c0,1,0.071,1.807,0.214,2.421c0.143,0.615,0.354,1.09,0.635,1.425c0.279,0.335,0.623,0.557,1.029,0.667s0.879,0.165,1.417,0.165
		c0.658,0,1.175-0.165,1.548-0.494c0.374-0.33,0.656-0.769,0.849-1.318c0.192-0.549,0.311-1.178,0.354-1.886
		s0.065-1.447,0.065-2.216c0-0.758-0.011-1.513-0.032-2.265c-0.022-0.752-0.056-1.507-0.1-2.265
		c0.154,0.022,0.303,0.042,0.445,0.058c0.143,0.017,0.274,0.025,0.396,0.025c0.143,0,0.28-0.008,0.411-0.025
		c0.132-0.016,0.27-0.036,0.412-0.058c-0.021,0.242-0.044,0.566-0.065,0.972c-0.022,0.406-0.044,0.876-0.066,1.408
		c-0.021,0.533-0.041,1.121-0.058,1.763c-0.017,0.643-0.024,1.321-0.024,2.035c0,1.911-0.412,3.281-1.235,4.11
		c-0.824,0.829-2.032,1.244-3.625,1.244C165.269,184.485,164.613,184.411,164.003,184.263z"/>
</g>
<g>
	<path fill="#0044AA" d="M67.4,170.177c0.196-0.196,0.433-0.293,0.71-0.293s0.514,0.098,0.71,0.293s0.293,0.433,0.293,0.71
		s-0.098,0.508-0.293,0.691s-0.433,0.275-0.71,0.275s-0.514-0.092-0.71-0.275s-0.293-0.414-0.293-0.691S67.204,170.373,67.4,170.177
		z"/>
</g>
</svg>
